<svg width="523" height="466" viewBox="0 0 523 466" fill="none" xmlns="http://www.w3.org/2000/svg">
<g clip-path="url(#clip0_48_10)">
<path d="M389.965 186.71C392.499 187.784 394.408 189.181 396.562 190.869C397.327 191.461 398.091 192.053 398.879 192.663C402.436 195.594 402.436 195.594 404 197.342C404 197.987 404 198.631 404 199.296C404.66 199.296 405.32 199.296 406 199.296C406 199.94 406 200.585 406 201.249C406.66 201.249 407.32 201.249 408 201.249C408 201.894 408 202.539 408 203.203C408.66 203.203 409.32 203.203 410 203.203C410 203.848 410 204.493 410 205.157C410.66 205.157 411.32 205.157 412 205.157C412 205.802 412 206.447 412 207.111C412.701 207.292 413.402 207.474 414.125 207.661C418.041 209.574 420.534 212.393 423 215.904C423 216.548 423 217.193 423 217.857C423.66 217.857 424.32 217.857 425 217.857C427.982 222.65 428.315 226.393 427.875 231.84C427.822 232.655 427.768 233.47 427.713 234.31C426.52 251.318 424.769 268.309 423 285.266C422.01 285.589 421.02 285.911 420 286.243C418.273 285.228 418.273 285.228 416.375 283.679C413.686 281.601 411.096 279.804 408.062 278.244C403.42 275.815 399.035 273.051 394.625 270.246C393.885 269.775 393.144 269.304 392.381 268.82C390.253 267.465 388.126 266.108 386 264.751C379.801 260.798 373.7 257.092 367 254.004C367 253.359 367 252.715 367 252.05C363.776 253.681 363.776 253.681 363.312 256.569C363.158 257.717 363.158 257.717 363 258.889C362.216 258.728 361.433 258.567 360.625 258.4C358.118 257.851 358.118 257.851 356 257.912C356.505 258.665 357.011 259.418 357.531 260.194C358.181 261.174 358.831 262.154 359.5 263.163C360.15 264.138 360.799 265.112 361.469 266.117C363 268.658 363 268.658 363 270.612C363.66 270.612 364.32 270.612 365 270.612C366.402 272.467 366.402 272.467 367.938 274.886C369.866 277.922 370.897 279.338 374 281.358C374 282.003 374 282.648 374 283.312C374.804 283.494 374.804 283.494 375.625 283.679C378 284.289 378 284.289 380.66 285.217C384.34 286.348 388.019 287.021 391.812 287.648C397.767 288.677 403.321 290.024 409 292.105C409 292.427 409 292.75 409 293.082C408.016 293.148 408.016 293.148 407.012 293.215C404.049 293.421 401.087 293.648 398.125 293.876C397.092 293.944 396.06 294.013 394.996 294.084C394.01 294.162 393.024 294.241 392.008 294.322C391.097 294.389 390.185 294.455 389.247 294.524C386.628 294.856 386.628 294.856 385 297.966C376.249 296.489 369.822 292.312 363.375 286.548C362.575 285.834 362.575 285.834 361.76 285.105C360.46 283.901 359.224 282.634 358 281.358C358 280.714 358 280.069 358 279.405C357.34 279.405 356.68 279.405 356 279.405C356 278.76 356 278.115 356 277.451C355.34 277.451 354.68 277.451 354 277.451C352.627 276.188 351.29 274.887 350 273.543C347.576 277.688 346.478 280.491 347 285.266C348.562 287.635 348.562 287.635 350.75 289.662C359 298.137 359 298.137 359 301.874C359.66 301.874 360.32 301.874 361 301.874C364.022 313.551 366.736 325.049 368 337.044C367.01 337.366 366.02 337.689 365 338.021C361.56 333.345 359.231 328.537 356.938 323.245C354.071 316.624 354.071 316.624 350 310.667C350 310.022 350 309.377 350 308.713C349.34 308.713 348.68 308.713 348 308.713C348 308.068 348 307.423 348 306.759C347.27 306.498 346.541 306.238 345.789 305.969C343.036 304.82 340.822 303.485 338.375 301.813C334.102 298.9 331.068 297.925 325.875 297.722C319.915 297.238 315.917 295.307 311 292.105C310.376 291.712 309.752 291.319 309.109 290.914C307.725 290.03 306.36 289.117 305 288.197C305.33 288.519 305.66 288.842 306 289.174C307.349 290.892 308.679 292.625 310 294.364C310.722 295.307 311.444 296.25 312.188 297.222C315.147 301.628 315.158 305.394 315.316 310.621C315.337 311.266 315.358 311.911 315.379 312.575C315.445 314.626 315.504 316.676 315.562 318.726C315.606 320.121 315.649 321.515 315.693 322.909C315.8 326.318 315.902 329.727 316 333.136C316.99 333.459 317.98 333.781 319 334.113C320.473 335.575 320.473 335.575 322.062 337.471C326.417 342.502 331.191 347.085 336 351.698C335.67 352.665 335.34 353.632 335 354.629C334.381 354.226 333.762 353.823 333.125 353.408C330.536 351.992 328.197 350.996 325.438 349.988C317.03 346.767 307.852 342.832 303 335.09C301.119 328.782 300.391 322.598 299.789 316.074C299.162 309.763 299.162 309.763 297 303.828C294.423 302.085 294.423 302.085 291.375 301.019C290.372 300.619 289.369 300.218 288.336 299.806C287.565 299.521 286.794 299.237 286 298.943C285.56 302.037 285.123 305.13 284.688 308.224C284.57 309.053 284.452 309.882 284.33 310.735C283.635 315.678 282.973 320.624 282.353 325.577C280.568 339.812 278.539 353.999 276.375 368.184C275.905 371.271 275.435 374.357 274.968 377.444C274.682 379.337 274.394 381.229 274.104 383.121C273.338 388.185 272.714 393.237 272.257 398.338C271.994 400.599 271.532 402.775 271.062 405.002C270.934 407.225 270.934 407.225 272 409.338C275.79 412.435 279.882 414.75 284.183 417.102C286.716 418.535 289.069 420.177 291.438 421.855C293.972 423.649 296.465 425.224 299.199 426.724C304.646 429.718 309.684 433.323 314.797 436.823C319.375 439.924 323.989 442.698 328.888 445.285C332.774 447.449 336.284 450.11 339.848 452.739C343.739 455.54 347.491 457.446 352 459.161C352 459.806 352 460.451 352 461.115C352.804 461.377 353.609 461.639 354.438 461.909C355.283 462.292 356.129 462.675 357 463.069C357.33 464.036 357.66 465.004 358 466C353.108 466.299 350.021 465.681 345.409 463.916C340.585 462.22 335.584 461.087 330.625 459.833C322.091 457.637 313.694 455.266 305.353 452.454C296.149 449.37 286.755 446.95 277.344 444.553C269.52 442.558 261.751 440.408 254 438.157C252.53 437.74 252.53 437.74 251.031 437.314C245.532 435.697 240.856 433.835 236 430.83C236 430.185 236 429.541 236 428.876C235.265 428.637 234.53 428.397 233.773 428.15C230.685 426.783 228.99 425.281 226.637 422.912C225.832 422.111 225.027 421.311 224.197 420.486C223.369 419.648 222.541 418.81 221.688 417.947C216.523 412.766 211.362 407.709 205.741 403.001C203.372 400.989 201.19 398.833 199 396.637C196.275 393.947 193.543 391.262 190.812 388.578C190.089 387.862 189.365 387.147 188.619 386.41C187.926 385.73 187.233 385.05 186.52 384.349C185.892 383.731 185.264 383.112 184.616 382.475C183.056 380.919 183.056 380.919 181 380.029C181 379.385 181 378.74 181 378.075C180.072 377.713 180.072 377.713 179.125 377.343C176.56 375.869 176.132 374.863 175 372.214C174.529 370.173 174.529 370.173 174.219 367.947C174.1 367.096 173.981 366.245 173.859 365.369C173.74 364.444 173.622 363.519 173.5 362.567C173.373 361.597 173.247 360.627 173.116 359.627C171.505 346.621 170.606 333.522 170 320.436C169.952 319.463 169.904 318.489 169.854 317.486C169.685 311.438 170.578 306.604 172.75 300.958C173.025 300.198 173.3 299.438 173.584 298.655C174.13 297.146 174.683 295.64 175.244 294.136C178.358 285.773 180.941 277.313 183.25 268.71C184.173 265.347 185.007 262.787 187 259.866C189.503 259.499 191.779 259.324 194.295 259.264C195.422 259.221 195.422 259.221 196.572 259.176C199.061 259.083 201.55 259.011 204.039 258.938C205.763 258.878 207.486 258.817 209.21 258.754C213.75 258.592 218.291 258.447 222.832 258.306C227.464 258.159 232.095 257.996 236.727 257.834C245.817 257.518 254.908 257.221 264 256.935C263.383 254.475 262.763 252.017 262.141 249.558C261.969 248.872 261.797 248.185 261.62 247.477C260.23 242.001 258.563 236.663 256.734 231.309C256.012 228.647 255.857 226.458 256 223.719C281.8 210.128 281.8 210.128 294.547 205.543C299.41 203.624 304.047 201.324 308.708 198.981C318.668 193.975 326.714 194.841 337.188 198.013C338.093 198.275 338.998 198.536 339.931 198.805C344.174 200.044 348.379 201.356 352.555 202.795C353.238 203.029 353.921 203.263 354.624 203.504C356.445 204.139 358.256 204.8 360.066 205.463C362.859 206.34 362.859 206.34 365.047 205.596C367.776 203.618 370.232 201.399 372.688 199.112C376.386 195.749 380.093 192.415 384 189.282C384.681 188.733 385.361 188.184 386.062 187.618C388 186.595 388 186.595 389.965 186.71ZM384.562 206.073C382.244 208.142 381.045 209.05 378 210.042C378 210.687 378 211.331 378 211.996C377.34 211.996 376.68 211.996 376 211.996C376 212.641 376 213.285 376 213.95C374.855 214.373 374.855 214.373 373.688 214.805C370.85 215.867 370.85 215.867 368 217.857C361.779 218.313 356.529 217.24 350.562 215.598C349.768 215.39 348.973 215.181 348.154 214.967C344.156 213.902 340.209 212.738 336.281 211.446C324.953 207.638 324.953 207.638 313.549 210.207C310.807 211.625 308.111 213.117 305.415 214.618C299.779 217.619 293.885 220.147 288.069 222.794C278.277 226.535 278.277 226.535 271.19 233.311C270.941 236.108 271.625 237.999 272.582 240.644C272.937 241.649 273.292 242.655 273.658 243.691C274.039 244.737 274.42 245.783 274.812 246.86C275.553 248.918 276.288 250.978 277.02 253.039C277.351 253.95 277.682 254.861 278.023 255.8C279.261 259.715 280.142 263.674 281 267.681C279.75 267.752 279.75 267.752 278.475 267.823C270.562 268.268 262.649 268.713 254.736 269.159C250.669 269.389 246.603 269.618 242.536 269.846C238.6 270.067 234.665 270.289 230.729 270.511C229.239 270.595 227.749 270.679 226.259 270.762C225.548 270.802 224.838 270.842 224.106 270.883C223.409 270.922 222.712 270.961 221.993 271.001C219.968 271.117 217.943 271.241 215.918 271.365C213.265 271.517 210.624 271.641 207.969 271.728C206.712 271.782 205.454 271.837 204.159 271.893C202.485 271.948 202.485 271.948 200.777 272.004C197.896 272.32 197.896 272.32 196.176 274.429C194.955 276.552 194.037 278.592 193.211 280.889C192.909 281.727 192.608 282.565 192.297 283.429C191.841 284.731 191.841 284.731 191.375 286.06C191.063 286.917 190.751 287.774 190.43 288.657C188.742 293.408 187.643 297.843 187 302.851C186.484 303.98 185.969 305.108 185.438 306.27C180.611 318.45 184.779 335.593 186 348.218C186.193 350.269 186.386 352.32 186.578 354.371C187.045 359.343 187.52 364.313 188 369.283C188.66 369.283 189.32 369.283 190 369.283C190 369.928 190 370.573 190 371.237C191.581 372.838 191.581 372.838 193.625 374.473C194.355 375.081 195.084 375.69 195.836 376.316C197.126 377.365 198.421 378.408 199.727 379.438C202.036 381.26 204.031 382.998 205.875 385.28C209.189 389.28 213.267 393.481 218.125 395.618C220.513 396.916 220.875 398.152 222 400.545C223.638 402.452 223.638 402.452 225.5 404.209C226.413 405.108 226.413 405.108 227.344 406.025C228.895 407.593 228.895 407.593 231 407.384C231 408.028 231 408.673 231 409.338C231.66 409.338 232.32 409.338 233 409.338C233 409.982 233 410.627 233 411.291C233.99 411.614 234.98 411.936 236 412.268C236.516 412.833 237.031 413.397 237.562 413.978C243.732 419.542 252.022 421.952 260 423.992C260.235 421.929 260.235 421.929 258.531 420.591C257.861 420.041 257.191 419.491 256.5 418.924C255.413 418.017 255.413 418.017 254.305 417.092C252.791 415.849 251.275 414.607 249.758 413.367C249.054 412.783 248.35 412.199 247.625 411.597C246.978 411.069 246.331 410.541 245.664 409.998C243.804 408.168 242.851 406.899 242 404.453C242.138 401.406 242.572 398.462 243.004 395.443C243.254 392.777 243.254 392.777 241.883 391.073C239.468 389.439 236.977 388.261 234.312 387.051C221.468 380.945 221.468 380.945 219 376.122C218.34 376.122 217.68 376.122 217 376.122C217 375.477 217 374.832 217 374.168C216.34 374.168 215.68 374.168 215 374.168C214.711 373.583 214.423 372.999 214.125 372.397C212.953 370.071 212.953 370.071 211 367.329C210.34 367.329 209.68 367.329 209 367.329C209 366.684 209 366.04 209 365.375C208.34 365.375 207.68 365.375 207 365.375C207 364.73 207 364.086 207 363.421C206.34 363.421 205.68 363.421 205 363.421C203.925 360.83 202.905 358.26 202 355.606C202.953 356.218 203.905 356.83 204.887 357.461C206.153 358.267 207.42 359.074 208.688 359.88C209.313 360.283 209.939 360.686 210.584 361.101C213.975 363.252 217.175 365.014 221 366.352C223.023 367.162 225.043 367.977 227.062 368.795C228.085 369.208 229.107 369.621 230.16 370.046C233 371.237 233 371.237 235.137 372.328C237.976 373.643 240.904 373.819 244 374.168C244.99 369.977 245.98 365.786 247 361.468C245.02 360.742 243.04 360.017 241 359.269C236.471 357.572 232.137 355.759 227.844 353.564C223.724 351.578 219.352 350.185 215 348.767C214.286 347.489 213.631 346.179 213 344.86C211.155 342.242 209.278 339.654 207.365 337.084C204.63 333.318 202.735 329.62 201 325.321C201.871 325.758 202.743 326.195 203.641 326.645C211.305 330.458 219.021 333.896 227 337.044C228.451 337.638 229.902 338.233 231.352 338.83C232.88 339.456 234.409 340.082 235.938 340.708C236.66 341.007 237.382 341.306 238.126 341.614C241.735 343.081 245.105 344.294 249 344.86C249.591 340.176 249.849 335.845 249 331.182C246.195 328.122 242.828 326.892 239 325.321C237.053 324.279 235.115 323.221 233.188 322.146C230.603 320.758 228.151 319.513 225.383 318.517C215.447 314.3 208.871 299.407 205 290.151C205.557 290.433 206.114 290.715 206.688 291.006C209.085 292.145 211.516 293.115 214 294.059C214 294.703 214 295.348 214 296.013C223.03 305.101 237.789 307.904 250 310.667C250.66 310.667 251.32 310.667 252 310.667C254.704 299.298 254.704 299.298 253 288.197C251.356 287.492 249.689 286.836 248 286.243C248 285.598 248 284.954 248 284.289C258.89 283.645 269.78 283 281 282.335C283.723 276.351 283.723 276.351 286.5 270.246C287.361 268.36 287.361 268.36 288.24 266.436C288.687 265.449 289.134 264.462 289.594 263.445C290.055 262.432 290.515 261.419 290.99 260.376C292.124 258.052 292.124 258.052 292 255.958C292.66 255.958 293.32 255.958 294 255.958C294.495 254.991 294.495 254.991 295 254.004C295.99 253.682 296.98 253.359 298 253.027C298.495 255.929 298.495 255.929 299 258.889C300.607 258.639 302.21 258.371 303.812 258.095C304.706 257.948 305.599 257.8 306.52 257.649C311.142 256.319 312.735 253.084 315 249.119C319.41 241.202 319.41 241.202 321 232.512C319.531 230.284 317.887 228.584 316 226.65C325.83 225.493 335.62 224.484 345.515 224.053C348.807 223.9 351.83 223.621 355 222.742C360.784 222.219 363.383 223.293 368 226.65C368.66 226.65 369.32 226.65 370 226.65C370 227.295 370 227.939 370 228.604C371.715 230.155 371.715 230.155 373.875 231.657C374.954 232.446 374.954 232.446 376.055 233.252C377.896 234.641 377.896 234.641 380 234.465C380 235.11 380 235.755 380 236.419C381.944 238.194 381.944 238.194 384.375 239.961C385.593 240.886 385.593 240.886 386.836 241.831C388.841 243.44 388.841 243.44 391 243.258C391 243.903 391 244.547 391 245.212C392.883 246.848 392.883 246.848 395.25 248.509C398.429 250.812 401.224 253.205 404 255.958C405.918 257.303 405.918 257.303 408 257.912C409.32 257.59 410.64 257.267 412 256.935C413.98 248.23 413.98 248.23 416 239.35C411.082 235.346 407.677 233.202 402.074 230.764C400 229.581 400 229.581 399 226.65C403.95 225.683 403.95 225.683 409 224.696C406.946 220.683 404.636 218.087 401.559 214.831C400 212.973 400 212.973 399 210.042C396.984 208.19 396.984 208.19 394.562 206.439C393.759 205.831 392.956 205.223 392.129 204.596C388.517 202.233 387.5 203.45 384.562 206.073Z" fill="#FFE343" fill-opacity="0.827451"/>
<path d="M0 130.91C28.7346 131.167 57.2478 132.657 85.8849 134.946C93.7765 135.569 101.67 136.105 109.571 136.594C114.576 136.904 119.579 137.238 124.581 137.577C128.039 137.81 131.496 138.032 134.956 138.225C150.235 139.102 163.052 140.094 176 148.495C176.97 149.102 177.94 149.708 178.939 150.333C180.413 151.277 181.871 152.246 183.301 153.254C185.116 154.536 185.116 154.536 188 155.333C188 155.978 188 156.623 188 157.287C189.176 157.59 189.176 157.59 190.375 157.898C194.186 159.31 197.336 161.069 200.789 163.16C203.395 164.737 206.014 166.279 208.648 167.808C210.307 168.779 211.966 169.749 213.625 170.72C214.853 171.429 214.853 171.429 216.106 172.153C216.868 172.602 217.629 173.051 218.414 173.514C219.45 174.118 219.45 174.118 220.506 174.734C220.999 175.102 221.492 175.47 222 175.849C222 176.494 222 177.139 222 177.803C222.715 177.905 223.431 178.007 224.168 178.112C227.312 178.853 229.552 180.016 232.312 181.65C233.196 182.162 234.079 182.675 234.988 183.203C235.652 183.678 236.316 184.152 237 184.642C237 185.286 237 185.931 237 186.595C237.523 186.682 238.047 186.769 238.586 186.859C241.874 187.831 244.682 189.484 247.625 191.175C248.239 191.524 248.853 191.873 249.485 192.232C250.73 192.942 251.974 193.654 253.217 194.368C254.851 195.303 256.496 196.222 258.141 197.14C259.043 197.65 259.945 198.16 260.875 198.685C261.677 199.136 262.479 199.587 263.305 200.051C263.864 200.447 264.424 200.842 265 201.25C265 201.894 265 202.539 265 203.203C266.176 203.566 266.176 203.566 267.375 203.936C270.392 205.339 270.716 206.18 272 209.065C250.021 219.765 226.105 222.653 202 225.673C196.447 226.375 190.895 227.083 185.343 227.792C183.659 228.007 181.976 228.222 180.293 228.436C165.417 230.326 165.417 230.326 150.615 232.695C140.204 234.458 131.16 232.681 121 230.375C118.151 229.742 115.3 229.116 112.449 228.489C111.738 228.332 111.027 228.175 110.294 228.013C102.464 226.293 94.5909 224.787 86.7051 223.327C85.757 223.148 84.8089 222.969 83.832 222.784C83.0145 222.633 82.197 222.482 81.3547 222.327C78.6887 221.691 76.4278 221.082 74 219.811C72.9167 217.72 72.9167 217.72 72.2617 215.102C72.0032 214.126 71.7446 213.149 71.4783 212.144C71.2173 211.087 70.9564 210.031 70.6875 208.943C70.093 206.727 69.4939 204.513 68.8906 202.299C68.5832 201.16 68.2757 200.021 67.959 198.847C66.4249 193.314 64.7232 187.843 62.9375 182.382C62.4815 180.898 62.4815 180.898 62.0164 179.384C60.0697 173.52 58.5988 170.928 53 168.034C53 167.389 53 166.744 53 166.08C52.1544 165.838 51.3087 165.596 50.4375 165.347C46.6157 163.989 43.4813 162.259 40 160.218C40 159.573 40 158.929 40 158.264C39.4818 158.024 38.9636 157.783 38.4297 157.535C29.7007 153.134 21.3687 147.809 13.0625 142.694C12.4536 142.326 11.8447 141.957 11.2173 141.578C9.77542 140.68 8.38174 139.709 7 138.725C7 138.081 7 137.436 7 136.772C6.03062 136.53 5.06125 136.288 4.0625 136.039C3.05187 135.636 2.04125 135.233 1 134.818C0.308594 132.787 0.308594 132.787 0 130.91ZM47 147.518C53.9959 152.074 65.3458 159.241 74 159.241C74.1186 160.085 74.2372 160.929 74.3594 161.798C75.0022 165.114 75.9795 167.952 77.25 171.087C77.9229 172.755 77.9229 172.755 78.6094 174.456C79.881 177.517 81.1829 180.562 82.5 183.604C84.3702 187.935 86.0507 192.304 87.6562 196.735C87.8834 197.361 88.1106 197.986 88.3447 198.631C88.8979 200.155 89.4491 201.679 90 203.203C94.9292 203.902 99.8588 204.597 104.789 205.29C106.466 205.527 108.143 205.763 109.82 206.001C112.23 206.343 114.64 206.681 117.051 207.02C118.176 207.18 118.176 207.18 119.324 207.343C122.246 207.751 125.044 208.088 128 208.088C128 207.443 128 206.799 128 206.134C127.34 206.134 126.68 206.134 126 206.134C126 205.489 126 204.845 126 204.18C125.34 204.18 124.68 204.18 124 204.18C123.752 203.636 123.505 203.092 123.25 202.532C120.899 198.283 117.88 195.232 114.125 192.152C110.53 189.177 107.868 186.002 105.227 182.203C104.822 181.718 104.417 181.233 104 180.734C103.34 180.734 102.68 180.734 102 180.734C102 180.089 102 179.444 102 178.78C101.34 178.78 100.68 178.78 100 178.78C99.67 177.168 99.34 175.556 99 173.895C99.6407 174.155 100.281 174.414 100.941 174.681C104.77 176.209 108.52 177.669 112.5 178.78C120.008 180.875 127.057 184.107 134.137 187.286C140.876 190.259 147.709 193.021 154.656 195.495C156.691 196.25 158.705 197.039 160.719 197.846C161.391 198.113 162.062 198.381 162.755 198.657C164.108 199.197 165.46 199.742 166.81 200.291C169.706 201.445 171.84 202.226 175 202.226C170.96 198.069 167.092 194.372 162 191.48C161.34 191.48 160.68 191.48 160 191.48C160 190.835 160 190.191 160 189.526C158.549 188.302 157.092 187.082 155.598 185.909C152.449 183.411 150.295 181.598 149 177.803C159.814 180.558 170.553 183.412 181.125 186.962C189.677 189.828 198.305 192.356 207 194.777C208.212 195.115 209.424 195.453 210.672 195.801C215.431 197.115 220.137 198.405 225 199.296C222.256 196.442 219.549 194.358 216.125 192.335C212.763 190.306 209.492 188.22 206.309 185.935C205.686 185.489 205.064 185.043 204.423 184.583C203.2 183.699 201.983 182.807 200.772 181.907C197.462 179.519 196.256 178.78 192 178.78C192 178.135 192 177.49 192 176.826C189.696 175.27 187.397 173.837 185 172.43C183.534 171.555 182.067 170.68 180.602 169.804C179.843 169.353 179.084 168.903 178.302 168.438C176.047 167.085 173.814 165.704 171.586 164.309C170.88 163.869 170.173 163.429 169.445 162.975C168.096 162.134 166.75 161.288 165.406 160.438C164.785 160.053 164.164 159.668 163.523 159.272C162.986 158.935 162.449 158.598 161.896 158.251C156.881 155.702 152.035 155.004 146.445 154.605C145.72 154.55 144.995 154.496 144.248 154.44C141.874 154.263 139.5 154.096 137.125 153.929C133.751 153.681 130.377 153.428 127.004 153.173C126.154 153.11 125.305 153.047 124.43 152.981C116.628 152.392 108.848 151.639 101.062 150.876C83.0791 149.146 65.0476 148.322 47 147.518Z" fill="black"/>
<path d="M102 0C106.571 0.607365 110.325 2.41476 114.375 4.45728C115.071 4.80337 115.767 5.14945 116.484 5.50602C118.661 6.59293 120.831 7.69061 123 8.79245C123.686 9.14034 124.372 9.48824 125.079 9.84667C137.136 15.9833 137.136 15.9833 142.438 19.3556C144.888 20.9135 147.17 21.9783 149.938 22.897C153.964 24.2592 157.122 26.3658 160.609 28.7243C167.931 33.5043 175.99 37.1249 183.872 40.9253C189.074 43.4559 194.118 46.1972 199.136 49.0569C202.33 50.87 205.539 52.55 208.875 54.098C215.598 57.2895 221.822 61.3517 228.099 65.2992C229.971 66.4511 229.971 66.4511 231.909 67.3604C236.758 69.7244 238.765 72.5419 240.875 77.2393C241.361 78.2529 241.361 78.2529 241.856 79.2871C242.552 80.7421 243.24 82.201 243.919 83.6633C245.038 86.0517 246.197 88.4181 247.367 90.7828C250.851 97.8371 254.251 104.87 257.121 112.188C258.422 115.317 260.004 118.29 261.574 121.297C268.989 135.725 268.989 135.725 271.625 142.938C272.998 146.535 274.64 149.825 276.422 153.238C282.178 164.443 287.518 175.84 292.59 187.355C293.4 189.164 294.247 190.96 295.191 192.705C296 194.411 296 194.411 296 197.342C293.551 199.124 293.551 199.124 290.312 200.944C289.257 201.552 288.201 202.161 287.113 202.787C283.996 204.182 282.358 204.685 279 204.18C276.576 202.835 275.025 201.228 273 199.296C273 198.651 273 198.006 273 197.342C272.444 197.11 271.889 196.878 271.316 196.64C268.456 195.094 266.331 193.164 263.938 190.992C261.341 188.642 258.949 186.562 256 184.642C256 183.997 256 183.352 256 182.688C255.34 182.688 254.68 182.688 254 182.688C254 182.043 254 181.398 254 180.734C253.34 180.734 252.68 180.734 252 180.734C252 180.089 252 179.444 252 178.78C250.35 178.135 248.7 177.49 247 176.826C247 176.181 247 175.536 247 174.872C246.416 174.624 245.832 174.376 245.23 174.12C242.76 172.789 241.238 171.323 239.312 169.316C235.709 165.676 231.877 162.649 227.688 159.676C227.131 159.21 226.574 158.744 226 158.264C226 157.619 226 156.975 226 156.31C225.469 156.111 224.938 155.912 224.391 155.707C221.676 154.174 219.685 152.227 217.483 150.065C207.828 140.639 197.278 135.722 184.617 130.998C181.371 129.677 178.255 128.135 175.125 126.575C167.176 122.614 159.097 118.938 151 115.279C150.358 114.989 149.715 114.698 149.054 114.399C145.371 112.735 141.686 111.075 138 109.417C138 108.772 138 108.128 138 107.463C137.316 107.364 136.631 107.264 135.926 107.162C132.417 106.352 129.442 105.004 126.188 103.494C125.026 102.959 123.865 102.424 122.668 101.873C121.788 101.461 120.907 101.049 120 100.625C119.96 99.7157 119.921 98.8067 119.88 97.8702C118.882 73.1006 118.882 73.1006 114 48.847C113.8 48.1502 113.599 47.4535 113.393 46.7357C112.374 43.2369 111.313 39.7521 110.227 36.2727C108.22 29.7841 106.617 23.1973 105 16.608C104.548 14.7945 104.548 14.7945 104.086 12.9444C102 4.4122 102 4.4122 102 0ZM123 25.4004C124.315 30.35 126.09 34.8377 128.375 39.4439C129.002 40.7362 129.628 42.0286 130.254 43.3211C131.258 45.3786 132.266 47.4339 133.277 49.4881C137.636 58.6141 138.491 67.9439 139.535 77.8575C139.662 78.9218 139.662 78.9218 139.792 80.0076C139.986 81.9209 140.041 83.8463 140.086 85.7684C141.091 89.214 141.322 89.473 144.316 91.1416C145.719 91.7848 147.136 92.4011 148.562 92.9924C149.96 93.617 151.357 94.2416 152.754 94.8661C153.456 95.1683 154.158 95.4705 154.882 95.7818C156.993 96.7138 159.051 97.7164 161.113 98.7472C164.542 100.441 168.018 101.829 171.625 103.128C174.965 104.333 178.067 105.544 181.211 107.185C183.993 108.814 183.993 108.814 187 107.463C183.108 99.7224 183.108 99.7224 178.961 92.1109C174.774 84.7063 171.373 77.5538 169 69.3627C169.66 69.3627 170.32 69.3627 171 69.3627C171.217 69.8715 171.433 70.3802 171.656 70.9044C173.544 74.2278 175.986 76.977 178.5 79.8648C178.999 80.4529 179.498 81.041 180.012 81.6469C181.294 83.1282 182.643 84.5545 184 85.9706C184.66 85.9706 185.32 85.9706 186 85.9706C186.289 86.7162 186.577 87.4617 186.875 88.2298C187.963 91.0022 187.963 91.0022 190 93.7862C190.66 93.7862 191.32 93.7862 192 93.7862C192.253 94.3453 192.505 94.9045 192.766 95.4805C194.153 97.9685 195.778 99.7704 197.75 101.846C200.908 105.243 203.776 108.722 206.555 112.417C208.07 114.393 209.634 116.311 211.25 118.21C211.73 118.774 212.209 119.338 212.703 119.919C213.94 121.366 213.94 121.366 216 121.14C216.402 122.017 216.402 122.017 216.812 122.911C217.991 125.032 219.231 126.326 221 127.979C219.662 118.137 217.943 108.414 216 98.6709C219.328 101.761 221.948 104.722 224.312 108.562C227.347 113.366 230.631 117.9 234.105 122.407C235.881 124.882 237.412 127.421 238.922 130.056C240.854 133.337 242.988 136.485 245.125 139.641C245.567 140.309 246.009 140.977 246.465 141.666C247.589 143.327 248.789 144.939 250 146.541C250.66 146.541 251.32 146.541 252 146.541C252.196 147.31 252.392 148.08 252.594 148.873C254.534 153.742 257.45 157.719 260.5 161.989C261.094 162.839 261.689 163.69 262.301 164.567C265.048 168.892 265.048 168.892 269 171.941C267.656 167.771 266.038 163.873 264.129 159.92C263.851 159.341 263.572 158.762 263.286 158.166C262.69 156.927 262.092 155.688 261.494 154.45C259.908 151.172 258.334 147.889 256.758 144.606C256.44 143.945 256.122 143.284 255.795 142.603C252.806 136.381 249.863 130.138 246.938 123.888C246.51 122.975 246.082 122.061 245.641 121.12C244.425 118.522 243.212 115.924 242 113.325C241.36 111.957 241.36 111.957 240.708 110.562C237.935 104.625 235.233 98.6621 232.596 92.6661C232.032 91.3961 231.459 90.1298 230.877 88.8676C230.276 87.5514 229.701 86.2233 229.15 84.8864C226.764 79.5239 224.049 77.3043 218.75 74.7358C218.051 74.374 217.352 74.0122 216.633 73.6394C214.435 72.5114 212.222 71.4201 210 70.3396C209.285 69.9916 208.571 69.6435 207.834 69.2849C205.066 67.9411 202.297 66.5991 199.52 65.2744C195.138 63.1624 191.192 60.7506 187.199 57.9943C183.669 55.8566 179.831 54.5179 175.98 53.0257C171.367 51.0942 167.231 48.5348 163 45.9161C157.438 42.5496 152.048 39.5568 146 37.1237C145.092 36.5797 144.185 36.0356 143.25 35.4751C141.002 33.9467 141.002 33.9467 138 34.1929C138 33.5481 138 32.9033 138 32.239C136.064 31.28 134.126 30.324 132.188 29.3692C131.109 28.8365 130.03 28.3038 128.918 27.755C126.038 26.3202 126.038 26.3202 123 25.4004Z" fill="black"/>
<path d="M459.5 195.449C460.658 195.939 461.816 196.429 463.01 196.934C470.393 200.073 477.71 203.334 484.98 206.714C487.569 207.892 490.154 208.968 492.812 209.981C497.653 211.828 502.424 213.816 507.188 215.843C507.948 216.159 508.709 216.476 509.493 216.802C514.483 218.943 518.823 221.247 523 224.696C523.904 227.589 523.373 229.438 523 232.512C510.877 235.742 494.058 225.188 483.714 219.54C480.818 217.901 477.944 216.229 475.081 214.536C470.647 211.922 466.163 209.555 461.5 207.355C456.635 205.058 452.27 202.55 447.965 199.361C445.471 198.038 443.802 198.068 441 198.319C438.262 199.225 438.262 199.225 436 200.273C436 200.917 436 201.562 436 202.226C435.34 202.226 434.68 202.226 434 202.226C434 202.871 434 203.516 434 204.18C432.207 205.653 432.207 205.653 429.812 207.233C429.035 207.76 428.258 208.286 427.457 208.828C424.729 210.176 423.014 210.283 420 210.042C419.188 208.393 419.188 208.393 419 206.134C422.336 202.501 426.064 199.579 430.062 196.67C431.085 195.921 432.107 195.172 433.16 194.4C442.813 187.797 449.37 191.066 459.5 195.449Z" fill="black"/>
<path d="M432 214.682C442.964 214.902 449.624 220.15 458 226.65C460.054 228.13 462.117 229.598 464.184 231.061C466 232.512 466 232.512 468.387 234.851C470.935 237.333 473.571 239.53 476.375 241.731C477.335 242.5 478.296 243.268 479.285 244.059C480.851 245.287 482.433 246.496 484.059 247.646C489.652 251.76 492.538 257.449 495 263.774C495 265.063 495 266.353 495 267.681C484.459 266.919 475.594 263.242 468 255.958C465.873 253.351 463.917 250.679 461.988 247.929C459.48 244.501 456.638 241.486 453.664 238.442C451.853 236.241 450.938 234.192 450 231.535C449.34 231.535 448.68 231.535 448 231.535C447.588 230.829 447.175 230.124 446.75 229.398C442.761 223.135 438.282 221.211 431.172 219.59C429 218.834 429 218.834 427 215.904C428.523 214.416 429.879 214.726 432 214.682Z" fill="black"/>
<path d="M398 290.151C399.647 290.262 401.292 290.387 402.938 290.517C404.312 290.619 404.312 290.619 405.715 290.723C406.846 290.924 406.846 290.924 408 291.128C408.33 291.773 408.66 292.417 409 293.082C402.658 294.208 396.433 294.152 390 294.059C390 293.736 390 293.414 390 293.082C394.455 292.598 394.455 292.598 399 292.105C398.67 291.46 398.34 290.815 398 290.151Z" fill="black"/>
<path d="M366 328.252C366.33 328.252 366.66 328.252 367 328.252C367.33 331.153 367.66 334.055 368 337.044C367.01 337.366 366.02 337.689 365 338.021C364.34 336.731 363.68 335.442 363 334.113C363.66 334.113 364.32 334.113 365 334.113C365.33 332.179 365.66 330.245 366 328.252Z" fill="black"/>
</g>
<defs>
<clipPath id="clip0_48_10">
<rect width="523" height="466" fill="white"/>
</clipPath>
</defs>
</svg>
