<svg width="686" height="109" viewBox="0 0 686 109" fill="none" xmlns="http://www.w3.org/2000/svg">
<path d="M79.8203 108V0.899993H102.47V89.25H145.97V108H79.8203ZM241.285 108H179.635V0.899993H241.285V19.5H202.285V43.05H238.585V61.65H202.285V89.25H241.285V108ZM344.12 108L336.32 82.5H297.32L289.52 108H265.07L302.87 0.449999H330.62L368.57 108H344.12ZM323.12 38.55C322.62 36.85 321.97 34.7 321.17 32.1C320.37 29.5 319.57 26.85 318.77 24.15C317.97 21.45 317.32 19.1 316.82 17.1C316.32 19.1 315.62 21.6 314.72 24.6C313.92 27.5 313.12 30.3 312.32 33C311.62 35.6 311.07 37.45 310.67 38.55L303.02 63.45H330.92L323.12 38.55ZM428.335 0.899993C438.035 0.899993 446.035 2.09999 452.335 4.49999C458.635 6.79999 463.335 10.35 466.435 15.15C469.535 19.85 471.085 25.8 471.085 33C471.085 37.9 470.135 42.2 468.235 45.9C466.435 49.5 463.985 52.6 460.885 55.2C457.885 57.7 454.635 59.75 451.135 61.35L482.635 108H457.435L431.935 66.9H419.785V108H397.135V0.899993H428.335ZM426.685 19.5H419.785V48.45H427.135C432.135 48.45 436.185 47.9 439.285 46.8C442.385 45.7 444.635 44.05 446.035 41.85C447.435 39.55 448.135 36.8 448.135 33.6C448.135 30.2 447.335 27.5 445.735 25.5C444.235 23.4 441.885 21.9 438.685 21C435.585 20 431.585 19.5 426.685 19.5ZM606.108 108H577.308L530.658 27H530.058C530.158 29.5 530.258 32.05 530.358 34.65C530.458 37.15 530.558 39.7 530.658 42.3C530.858 44.8 531.008 47.35 531.108 49.95C531.208 52.45 531.308 55 531.408 57.6V108H511.158V0.899993H539.808L586.308 81.15H586.758C586.658 78.65 586.558 76.2 586.458 73.8C586.358 71.3 586.258 68.85 586.158 66.45C586.158 63.95 586.108 61.5 586.008 59.1C585.908 56.6 585.808 54.1 585.708 51.6V0.899993H606.108V108Z" fill="white"/>
</svg>
