<?xml version="1.0" encoding="UTF-8"?>
<svg version="1.1" xmlns="http://www.w3.org/2000/svg" width="765" height="188">
<path d="M0 0 C13.2 0 26.4 0 40 0 C42.35125 4.125 44.7025 8.25 47.125 12.5 C52.95765835 22.7180306 58.83917038 32.90541762 64.7800293 43.06103516 C70.13903022 52.22517663 75.44661608 61.41852873 80.74609375 70.6171875 C87.1592964 81.74753921 93.58067854 92.87317613 100 104 C100 69.68 100 35.36 100 0 C109.24 0 118.48 0 128 0 C128 47.19 128 94.38 128 143 C114.8 143 101.6 143 88 143 C78.51556017 131.56288138 78.51556017 131.56288138 76.71875 126.109375 C74.18448236 119.18416328 70.80538145 113.06149193 67.04467773 106.76281738 C65.30245776 103.82294841 63.62429008 100.84689038 61.9375 97.875 C57.78393052 90.59628949 53.55467245 83.36246885 49.31982422 76.13085938 C42.11601437 63.80980348 35.06167486 51.402879 28 39 C27.67 39 27.34 39 27 39 C27.07105453 40.28150436 27.14210907 41.56300873 27.21531677 42.88334656 C27.87547216 55.33613381 28.13614589 67.73865304 28.09765625 80.20703125 C28.09578325 82.03789735 28.09436354 83.86876395 28.09336853 85.69963074 C28.08961259 90.43896961 28.07984458 95.17827615 28.06866455 99.91760254 C28.05829846 104.78555871 28.0538389 109.65352027 28.04882812 114.52148438 C28.0382135 124.01433916 28.02067602 133.50716179 28 143 C18.76 143 9.52 143 0 143 C0 95.81 0 48.62 0 0 Z " fill="#FFFFFF" transform="translate(606,22)"/>
<path d="M0 0 C75.86661838 0 75.86661838 0 90.87109375 14.546875 C99.04681435 23.96770534 100.83592565 35.88797087 100 48 C98.88424175 57.57037708 94.15167653 66.51923923 87 73 C83.09455362 75.8303235 79.09470859 78.44908931 75 81 C76.30841664 83.72266422 77.74420664 86.23868685 79.42333984 88.74853516 C79.90499603 89.47094391 80.38665222 90.19335266 80.88290405 90.93765259 C81.40365509 91.71361786 81.92440613 92.48958313 82.4609375 93.2890625 C83.00674469 94.10635834 83.55255188 94.92365417 84.11489868 95.76571655 C85.86610052 98.38693271 87.62047683 101.00600613 89.375 103.625 C90.51714146 105.33319001 91.65907057 107.04152203 92.80078125 108.75 C99.65657767 119.00680569 99.65657767 119.00680569 106.52832031 129.25292969 C107.63610274 130.90557548 108.74385155 132.5582438 109.8515625 134.2109375 C110.37124603 134.98233063 110.89092957 135.75372375 111.42636108 136.54849243 C115 141.88691205 115 141.88691205 115 143 C85.58518428 146.7658689 85.58518428 146.7658689 77.12792969 141.06347656 C72.29768016 135.66197545 69.50990533 129.17112786 66.65722656 122.57373047 C64.01911975 116.88477827 60.65121838 111.69087337 57.28231812 106.4130249 C55.54470309 103.67439832 53.85907734 100.90422085 52.16796875 98.13671875 C50.48469196 95.39037036 48.7870308 92.68054621 47 90 C41.72 89.67 36.44 89.34 31 89 C31 106.82 31 124.64 31 143 C20.77 143 10.54 143 0 143 C0 95.81 0 48.62 0 0 Z M31 25 C31 37.54 31 50.08 31 63 C48.12379595 63.75671097 48.12379595 63.75671097 62.9375 58.1875 C67.9613348 52.85919037 68.54521491 47.95607484 68.3515625 40.84375 C67.72153235 35.74750608 65.23859428 33.20511876 61.6875 29.75 C52.81254195 23.97095755 41.04905802 25 31 25 Z " fill="#FFFFFF" transform="translate(454,22)"/>
<path d="M0 0 C2.90834885 -0.26660183 5.60138268 -0.34779124 8.5078125 -0.29296875 C9.34843231 -0.28872391 10.18905212 -0.28447906 11.05514526 -0.28010559 C13.74541993 -0.26328532 16.43495099 -0.22562781 19.125 -0.1875 C20.94660378 -0.17245745 22.76821928 -0.1587683 24.58984375 -0.14648438 C29.06018324 -0.11337094 33.52996546 -0.06156637 38 0 C38.42595459 1.23298828 38.85190918 2.46597656 39.29077148 3.73632812 C47.3078608 26.93354963 55.36033224 50.11748451 63.5625 73.25 C63.90754578 74.22342346 64.25259155 75.19684692 64.60809326 76.19976807 C68.21479486 86.37149599 71.83326969 96.53897421 75.4657135 106.70153809 C76.97193889 110.91607469 78.47617148 115.1313216 79.98043823 119.34655762 C81.04313658 122.32080624 82.10948164 125.29373012 83.17602539 128.26660156 C83.81672942 130.06048959 84.45728175 131.85443181 85.09765625 133.6484375 C85.39361694 134.46990265 85.68957764 135.2913678 85.99450684 136.13772583 C88 141.77257882 88 141.77257882 88 144 C76.78 144 65.56 144 54 144 C50.7 133.11 47.4 122.22 44 111 C27.17 110.67 10.34 110.34 -7 110 C-7.99 113.96 -8.98 117.92 -10 122 C-10.58216115 124.00250714 -11.18293074 126.00001209 -11.82421875 127.984375 C-12.10096436 128.84772461 -12.37770996 129.71107422 -12.6628418 130.60058594 C-13.000979 131.63989258 -13.33911621 132.67919922 -13.6875 133.75 C-15.3271875 138.82375 -15.3271875 138.82375 -17 144 C-28.22 144 -39.44 144 -51 144 C-44.63239131 124.59395446 -37.97131456 105.31869542 -31.11914062 86.0793457 C-26.72674058 73.73814202 -22.38157497 61.38160557 -18.08203125 49.0078125 C-17.57690944 47.55517864 -17.07175205 46.10255715 -16.56655884 44.64994812 C-14.32461549 38.20229498 -12.08478825 31.75393856 -9.85366535 25.3025322 C-8.92768638 22.62777569 -7.99827204 19.95422192 -7.06799889 17.28095627 C-6.42454339 15.42814607 -5.78556124 13.57378426 -5.14668274 11.71939087 C-4.56759407 10.05751236 -4.56759407 10.05751236 -3.97680664 8.36206055 C-3.47414024 6.9104377 -3.47414024 6.9104377 -2.96131897 5.42948914 C-2 3 -2 3 0 0 Z M18 25 C17.76925781 25.8029248 17.53851563 26.60584961 17.30078125 27.43310547 C16.20297081 31.24777979 15.10242269 35.06165658 14 38.875 C13.79980255 39.56774017 13.5996051 40.26048035 13.39334106 40.97421265 C10.18187366 52.07234818 6.85263376 63.1274724 3.38867188 74.14990234 C3.07349609 75.15875488 2.75832031 76.16760742 2.43359375 77.20703125 C2.15572021 78.0885083 1.87784668 78.96998535 1.59155273 79.87817383 C0.91048245 81.95396434 0.91048245 81.95396434 1 84 C12.88 84 24.76 84 37 84 C36.11957031 81.16535156 35.23914063 78.33070312 34.33203125 75.41015625 C33.4612081 72.60336412 32.59081434 69.79643917 31.72045898 66.98950195 C31.12455135 65.06846494 30.52821146 63.14756196 29.93139648 61.22680664 C26.18837111 49.17923886 22.51662176 37.11571171 19 25 C18.67 25 18.34 25 18 25 Z " fill="#FFFFFF" transform="translate(329,21)"/>
<path d="M0 0 C27.39 0 54.78 0 83 0 C83 8.25 83 16.5 83 25 C65.84 25 48.68 25 31 25 C31 35.23 31 45.46 31 56 C47.17 56 63.34 56 80 56 C80 64.58 80 73.16 80 82 C63.83 82 47.66 82 31 82 C31 93.88 31 105.76 31 118 C48.16 118 65.32 118 83 118 C83 126.25 83 134.5 83 143 C55.61 143 28.22 143 0 143 C0 95.81 0 48.62 0 0 Z " fill="#FFFFFF" transform="translate(164,22)"/>
<path d="M0 0 C10.23 0 20.46 0 31 0 C31 38.94 31 77.88 31 118 C50.14 118 69.28 118 89 118 C89 126.25 89 134.5 89 143 C59.63 143 30.26 143 0 143 C0 95.81 0 48.62 0 0 Z " fill="#FFFFFF" transform="translate(31,22)"/>
</svg>
