<svg width="837" height="607" viewBox="0 0 837 607" fill="none" xmlns="http://www.w3.org/2000/svg">
<g clip-path="url(#clip0_42_4)">
<ellipse cx="381.5" cy="370" rx="242.5" ry="237" fill="#FFE655"/>
<path d="M357.898 469.172H381.805V473H349.344V414.914H357.898V469.172ZM401.805 435.461C404.461 435.461 406.701 435.956 408.523 436.945C410.372 437.909 411.87 439.224 413.016 440.891C414.188 442.557 415.021 444.484 415.516 446.672C416.036 448.833 416.297 451.125 416.297 453.547V455.383H392.234C392.234 456.841 392.469 458.417 392.938 460.109C393.406 461.802 394.161 463.365 395.203 464.797C396.271 466.229 397.638 467.427 399.305 468.391C400.997 469.328 403.068 469.797 405.516 469.797H413.641V473H405.398C401.753 473 398.602 472.583 395.945 471.75C393.315 470.917 391.141 469.706 389.422 468.117C387.729 466.529 386.479 464.589 385.672 462.297C384.865 460.005 384.461 457.388 384.461 454.445C384.461 451.997 384.839 449.628 385.594 447.336C386.375 445.044 387.495 443.026 388.953 441.281C390.438 439.51 392.247 438.104 394.383 437.062C396.544 435.995 399.018 435.461 401.805 435.461ZM401.414 439.016C399.799 439.016 398.419 439.38 397.273 440.109C396.128 440.839 395.177 441.815 394.422 443.039C393.693 444.237 393.146 445.643 392.781 447.258C392.443 448.846 392.26 450.5 392.234 452.219H408.758V450.539C408.706 449.029 408.562 447.583 408.328 446.203C408.12 444.823 407.742 443.599 407.195 442.531C406.648 441.464 405.906 440.617 404.969 439.992C404.057 439.341 402.872 439.016 401.414 439.016ZM436.805 438.859C435.555 438.859 434.461 438.898 433.523 438.977C432.612 439.055 431.779 439.159 431.023 439.289C430.268 439.419 429.565 439.576 428.914 439.758C428.263 439.914 427.612 440.083 426.961 440.266L426.023 437.727C428.211 436.919 430.49 436.346 432.859 436.008C435.255 435.643 437.521 435.461 439.656 435.461C442.391 435.461 444.63 435.604 446.375 435.891C448.146 436.177 449.526 436.659 450.516 437.336C451.505 437.987 452.182 438.872 452.547 439.992C452.938 441.086 453.133 442.466 453.133 444.133V473H440.32C436.831 473 433.849 472.635 431.375 471.906C428.927 471.177 426.922 470.201 425.359 468.977C423.797 467.727 422.651 466.307 421.922 464.719C421.193 463.104 420.828 461.411 420.828 459.641C420.828 457.453 421.167 455.526 421.844 453.859C422.547 452.193 423.549 450.799 424.852 449.68C426.154 448.534 427.742 447.674 429.617 447.102C431.492 446.503 433.628 446.203 436.023 446.203C437.326 446.203 438.797 446.424 440.438 446.867C442.104 447.31 443.693 447.974 445.203 448.859V443.977C445.203 443.378 445.138 442.779 445.008 442.18C444.878 441.555 444.539 441.008 443.992 440.539C443.445 440.044 442.599 439.641 441.453 439.328C440.333 439.016 438.784 438.859 436.805 438.859ZM445.203 469.797V451.711C443.953 450.956 442.651 450.396 441.297 450.031C439.943 449.667 438.445 449.484 436.805 449.484C435.503 449.484 434.344 449.719 433.328 450.188C432.339 450.656 431.505 451.32 430.828 452.18C430.151 453.039 429.63 454.068 429.266 455.266C428.927 456.464 428.758 457.792 428.758 459.25C428.758 459.667 428.771 460.214 428.797 460.891C428.849 461.568 428.979 462.297 429.188 463.078C429.422 463.859 429.76 464.654 430.203 465.461C430.672 466.242 431.323 466.958 432.156 467.609C432.99 468.26 434.044 468.794 435.32 469.211C436.596 469.602 438.159 469.797 440.008 469.797H445.203ZM471.336 439.094C472.378 438.365 473.289 437.766 474.07 437.297C474.878 436.828 475.594 436.464 476.219 436.203C476.844 435.917 477.417 435.721 477.938 435.617C478.484 435.513 479.018 435.461 479.539 435.461C481.57 435.461 483.081 436.164 484.07 437.57C485.06 438.977 485.646 440.969 485.828 443.547L478.992 445.578C478.732 443.703 478.38 442.375 477.938 441.594C477.495 440.812 476.805 440.422 475.867 440.422C475.32 440.422 474.669 440.539 473.914 440.773C473.185 441.008 472.326 441.398 471.336 441.945V473H463.406V436.203H471.336V439.094ZM499.773 439.25C501.44 438.521 502.977 437.922 504.383 437.453C505.789 436.958 507.104 436.568 508.328 436.281C509.552 435.969 510.685 435.76 511.727 435.656C512.794 435.526 513.823 435.461 514.812 435.461C517.26 435.461 519.122 436.099 520.398 437.375C521.701 438.651 522.352 440.708 522.352 443.547V473H514.422V444.758C514.422 444.185 514.357 443.599 514.227 443C514.122 442.401 513.914 441.867 513.602 441.398C513.289 440.93 512.859 440.552 512.312 440.266C511.792 439.953 511.128 439.797 510.32 439.797C508.992 439.797 507.456 439.966 505.711 440.305C503.966 440.617 501.987 441.281 499.773 442.297V473H491.844V436.203H499.773V439.25ZM547.664 435.461C550.32 435.461 552.56 435.956 554.383 436.945C556.232 437.909 557.729 439.224 558.875 440.891C560.047 442.557 560.88 444.484 561.375 446.672C561.896 448.833 562.156 451.125 562.156 453.547V455.383H538.094C538.094 456.841 538.328 458.417 538.797 460.109C539.266 461.802 540.021 463.365 541.062 464.797C542.13 466.229 543.497 467.427 545.164 468.391C546.857 469.328 548.927 469.797 551.375 469.797H559.5V473H551.258C547.612 473 544.461 472.583 541.805 471.75C539.174 470.917 537 469.706 535.281 468.117C533.589 466.529 532.339 464.589 531.531 462.297C530.724 460.005 530.32 457.388 530.32 454.445C530.32 451.997 530.698 449.628 531.453 447.336C532.234 445.044 533.354 443.026 534.812 441.281C536.297 439.51 538.107 438.104 540.242 437.062C542.404 435.995 544.878 435.461 547.664 435.461ZM547.273 439.016C545.659 439.016 544.279 439.38 543.133 440.109C541.987 440.839 541.036 441.815 540.281 443.039C539.552 444.237 539.005 445.643 538.641 447.258C538.302 448.846 538.12 450.5 538.094 452.219H554.617V450.539C554.565 449.029 554.422 447.583 554.188 446.203C553.979 444.823 553.602 443.599 553.055 442.531C552.508 441.464 551.766 440.617 550.828 439.992C549.917 439.341 548.732 439.016 547.273 439.016ZM584.93 435.461C587.586 435.461 589.826 435.956 591.648 436.945C593.497 437.909 594.995 439.224 596.141 440.891C597.312 442.557 598.146 444.484 598.641 446.672C599.161 448.833 599.422 451.125 599.422 453.547V455.383H575.359C575.359 456.841 575.594 458.417 576.062 460.109C576.531 461.802 577.286 463.365 578.328 464.797C579.396 466.229 580.763 467.427 582.43 468.391C584.122 469.328 586.193 469.797 588.641 469.797H596.766V473H588.523C584.878 473 581.727 472.583 579.07 471.75C576.44 470.917 574.266 469.706 572.547 468.117C570.854 466.529 569.604 464.589 568.797 462.297C567.99 460.005 567.586 457.388 567.586 454.445C567.586 451.997 567.964 449.628 568.719 447.336C569.5 445.044 570.62 443.026 572.078 441.281C573.562 439.51 575.372 438.104 577.508 437.062C579.669 435.995 582.143 435.461 584.93 435.461ZM584.539 439.016C582.924 439.016 581.544 439.38 580.398 440.109C579.253 440.839 578.302 441.815 577.547 443.039C576.818 444.237 576.271 445.643 575.906 447.258C575.568 448.846 575.385 450.5 575.359 452.219H591.883V450.539C591.831 449.029 591.688 447.583 591.453 446.203C591.245 444.823 590.867 443.599 590.32 442.531C589.773 441.464 589.031 440.617 588.094 439.992C587.182 439.341 585.997 439.016 584.539 439.016Z" fill="#00141B"/>
<g clip-path="url(#clip1_42_4)">
<path d="M387.965 193.71C390.499 194.784 392.408 196.181 394.562 197.869C395.327 198.461 396.091 199.053 396.879 199.663C400.436 202.594 400.436 202.594 402 204.342C402 204.987 402 205.631 402 206.296C402.66 206.296 403.32 206.296 404 206.296C404 206.94 404 207.585 404 208.249C404.66 208.249 405.32 208.249 406 208.249C406 208.894 406 209.539 406 210.203C406.66 210.203 407.32 210.203 408 210.203C408 210.848 408 211.493 408 212.157C408.66 212.157 409.32 212.157 410 212.157C410 212.802 410 213.447 410 214.111C410.701 214.292 411.402 214.474 412.125 214.661C416.041 216.574 418.534 219.393 421 222.904C421 223.548 421 224.193 421 224.857C421.66 224.857 422.32 224.857 423 224.857C425.982 229.65 426.315 233.393 425.875 238.84C425.822 239.655 425.768 240.47 425.713 241.31C424.52 258.318 422.769 275.309 421 292.266C420.01 292.589 419.02 292.911 418 293.243C416.273 292.228 416.273 292.228 414.375 290.679C411.686 288.601 409.096 286.804 406.062 285.244C401.42 282.815 397.035 280.051 392.625 277.246C391.885 276.775 391.144 276.304 390.381 275.82C388.253 274.465 386.126 273.108 384 271.751C377.801 267.798 371.7 264.092 365 261.004C365 260.359 365 259.715 365 259.05C361.776 260.681 361.776 260.681 361.312 263.569C361.158 264.717 361.158 264.717 361 265.889C360.216 265.728 359.433 265.567 358.625 265.4C356.118 264.851 356.118 264.851 354 264.912C354.505 265.665 355.011 266.418 355.531 267.194C356.181 268.174 356.831 269.154 357.5 270.163C358.15 271.138 358.799 272.112 359.469 273.117C361 275.658 361 275.658 361 277.612C361.66 277.612 362.32 277.612 363 277.612C364.402 279.467 364.402 279.467 365.938 281.886C367.866 284.922 368.897 286.338 372 288.358C372 289.003 372 289.648 372 290.312C372.804 290.494 372.804 290.494 373.625 290.679C376 291.289 376 291.289 378.66 292.217C382.34 293.348 386.019 294.021 389.812 294.648C395.767 295.677 401.321 297.024 407 299.105C407 299.427 407 299.75 407 300.082C406.016 300.148 406.016 300.148 405.012 300.215C402.049 300.421 399.087 300.648 396.125 300.876C395.092 300.944 394.06 301.013 392.996 301.084C392.01 301.162 391.024 301.241 390.008 301.322C389.097 301.389 388.185 301.455 387.247 301.524C384.628 301.856 384.628 301.856 383 304.966C374.249 303.489 367.822 299.312 361.375 293.548C360.575 292.834 360.575 292.834 359.76 292.105C358.46 290.901 357.224 289.634 356 288.358C356 287.714 356 287.069 356 286.405C355.34 286.405 354.68 286.405 354 286.405C354 285.76 354 285.115 354 284.451C353.34 284.451 352.68 284.451 352 284.451C350.627 283.188 349.29 281.887 348 280.543C345.576 284.688 344.478 287.491 345 292.266C346.562 294.635 346.562 294.635 348.75 296.662C357 305.137 357 305.137 357 308.874C357.66 308.874 358.32 308.874 359 308.874C362.022 320.551 364.736 332.049 366 344.044C365.01 344.366 364.02 344.689 363 345.021C359.56 340.345 357.231 335.537 354.938 330.245C352.071 323.624 352.071 323.624 348 317.667C348 317.022 348 316.377 348 315.713C347.34 315.713 346.68 315.713 346 315.713C346 315.068 346 314.423 346 313.759C345.27 313.498 344.541 313.238 343.789 312.969C341.036 311.82 338.822 310.485 336.375 308.813C332.102 305.9 329.068 304.925 323.875 304.722C317.915 304.238 313.917 302.307 309 299.105C308.376 298.712 307.752 298.319 307.109 297.914C305.725 297.03 304.36 296.117 303 295.197C303.33 295.519 303.66 295.842 304 296.174C305.349 297.892 306.679 299.625 308 301.364C308.722 302.307 309.444 303.25 310.188 304.222C313.147 308.628 313.158 312.394 313.316 317.621C313.337 318.266 313.358 318.911 313.379 319.575C313.445 321.626 313.504 323.676 313.562 325.726C313.606 327.121 313.649 328.515 313.693 329.909C313.8 333.318 313.902 336.727 314 340.136C314.99 340.459 315.98 340.781 317 341.113C318.473 342.575 318.473 342.575 320.062 344.471C324.417 349.502 329.191 354.085 334 358.698C333.67 359.665 333.34 360.632 333 361.629C332.381 361.226 331.762 360.823 331.125 360.408C328.536 358.992 326.197 357.996 323.438 356.988C315.03 353.767 305.852 349.832 301 342.09C299.119 335.782 298.391 329.598 297.789 323.074C297.162 316.763 297.162 316.763 295 310.828C292.423 309.085 292.423 309.085 289.375 308.019C288.372 307.619 287.369 307.218 286.336 306.806C285.565 306.521 284.794 306.237 284 305.943C283.56 309.037 283.123 312.13 282.688 315.224C282.57 316.053 282.452 316.882 282.33 317.735C281.635 322.678 280.973 327.624 280.353 332.577C278.568 346.812 276.539 360.999 274.375 375.184C273.905 378.271 273.435 381.357 272.968 384.444C272.682 386.337 272.394 388.229 272.104 390.121C271.338 395.185 270.714 400.237 270.257 405.338C269.994 407.599 269.532 409.775 269.062 412.002C268.934 414.225 268.934 414.225 270 416.338C273.79 419.435 277.882 421.749 282.183 424.102C284.716 425.535 287.069 427.177 289.438 428.855C291.972 430.649 294.465 432.224 297.199 433.724C302.646 436.718 307.684 440.323 312.797 443.823C317.375 446.924 321.989 449.698 326.888 452.285C330.774 454.449 334.284 457.11 337.848 459.739C341.739 462.54 345.491 464.446 350 466.161C350 466.806 350 467.451 350 468.115C350.804 468.377 351.609 468.639 352.438 468.909C353.283 469.292 354.129 469.675 355 470.069C355.33 471.036 355.66 472.004 356 473C351.108 473.299 348.021 472.681 343.409 470.916C338.585 469.22 333.584 468.087 328.625 466.833C320.091 464.637 311.694 462.266 303.353 459.454C294.149 456.37 284.755 453.95 275.344 451.553C267.52 449.558 259.751 447.408 252 445.157C250.53 444.74 250.53 444.74 249.031 444.314C243.532 442.697 238.856 440.835 234 437.83C234 437.185 234 436.541 234 435.876C233.265 435.637 232.53 435.397 231.773 435.15C228.685 433.783 226.99 432.281 224.637 429.912C223.832 429.111 223.027 428.311 222.197 427.486C221.369 426.648 220.541 425.81 219.688 424.947C214.523 419.766 209.362 414.709 203.741 410.001C201.372 407.989 199.19 405.833 197 403.637C194.275 400.947 191.543 398.262 188.812 395.578C188.089 394.862 187.365 394.147 186.619 393.41C185.926 392.73 185.233 392.05 184.52 391.349C183.892 390.731 183.264 390.112 182.616 389.475C181.056 387.919 181.056 387.919 179 387.029C179 386.385 179 385.74 179 385.075C178.072 384.713 178.072 384.713 177.125 384.343C174.56 382.869 174.132 381.863 173 379.214C172.529 377.173 172.529 377.173 172.219 374.947C172.1 374.096 171.981 373.245 171.859 372.369C171.74 371.444 171.622 370.519 171.5 369.567C171.373 368.597 171.247 367.627 171.116 366.627C169.505 353.621 168.606 340.522 168 327.436C167.952 326.463 167.904 325.489 167.854 324.486C167.685 318.438 168.578 313.604 170.75 307.958C171.025 307.198 171.3 306.438 171.584 305.655C172.13 304.146 172.683 302.64 173.244 301.136C176.358 292.773 178.941 284.313 181.25 275.71C182.173 272.347 183.007 269.787 185 266.866C187.503 266.499 189.779 266.324 192.295 266.264C193.422 266.221 193.422 266.221 194.572 266.176C197.061 266.083 199.55 266.011 202.039 265.939C203.763 265.878 205.486 265.817 207.21 265.754C211.75 265.592 216.291 265.447 220.832 265.306C225.464 265.159 230.095 264.996 234.727 264.834C243.817 264.518 252.908 264.221 262 263.935C261.383 261.475 260.763 259.017 260.141 256.558C259.969 255.872 259.797 255.185 259.62 254.477C258.23 249.001 256.563 243.663 254.734 238.309C254.012 235.647 253.857 233.458 254 230.719C279.8 217.128 279.8 217.128 292.547 212.543C297.41 210.624 302.047 208.324 306.708 205.981C316.668 200.975 324.714 201.841 335.188 205.013C336.093 205.275 336.998 205.536 337.931 205.805C342.174 207.044 346.379 208.356 350.555 209.795C351.238 210.029 351.921 210.263 352.624 210.504C354.445 211.139 356.256 211.8 358.066 212.463C360.859 213.34 360.859 213.34 363.047 212.596C365.776 210.618 368.232 208.399 370.688 206.112C374.386 202.749 378.093 199.415 382 196.282C382.681 195.733 383.361 195.184 384.062 194.618C386 193.595 386 193.595 387.965 193.71ZM382.562 213.073C380.244 215.142 379.045 216.05 376 217.042C376 217.687 376 218.331 376 218.996C375.34 218.996 374.68 218.996 374 218.996C374 219.641 374 220.285 374 220.95C372.855 221.373 372.855 221.373 371.688 221.805C368.85 222.867 368.85 222.867 366 224.857C359.779 225.313 354.529 224.24 348.562 222.598C347.768 222.39 346.973 222.181 346.154 221.967C342.156 220.902 338.209 219.738 334.281 218.446C322.953 214.638 322.953 214.638 311.549 217.207C308.807 218.625 306.111 220.117 303.415 221.618C297.779 224.619 291.885 227.147 286.069 229.794C276.277 233.535 276.277 233.535 269.19 240.311C268.941 243.108 269.625 244.999 270.582 247.644C270.937 248.649 271.292 249.655 271.658 250.691C272.039 251.737 272.42 252.783 272.812 253.86C273.553 255.918 274.288 257.978 275.02 260.039C275.351 260.95 275.682 261.861 276.023 262.8C277.261 266.715 278.142 270.674 279 274.681C277.75 274.752 277.75 274.752 276.475 274.823C268.562 275.268 260.649 275.713 252.736 276.159C248.669 276.389 244.603 276.618 240.536 276.846C236.6 277.067 232.665 277.289 228.729 277.511C227.239 277.595 225.749 277.679 224.259 277.762C223.548 277.802 222.838 277.842 222.106 277.883C221.409 277.922 220.712 277.961 219.993 278.001C217.968 278.117 215.943 278.241 213.918 278.365C211.265 278.517 208.624 278.641 205.969 278.728C204.712 278.782 203.454 278.837 202.159 278.893C200.485 278.948 200.485 278.948 198.777 279.004C195.896 279.32 195.896 279.32 194.176 281.429C192.955 283.552 192.037 285.592 191.211 287.889C190.909 288.727 190.608 289.565 190.297 290.429C189.841 291.731 189.841 291.731 189.375 293.06C189.063 293.917 188.751 294.774 188.43 295.657C186.742 300.408 185.643 304.843 185 309.851C184.484 310.98 183.969 312.108 183.438 313.27C178.611 325.45 182.779 342.593 184 355.218C184.193 357.269 184.386 359.32 184.578 361.371C185.045 366.343 185.52 371.313 186 376.283C186.66 376.283 187.32 376.283 188 376.283C188 376.928 188 377.573 188 378.237C189.581 379.838 189.581 379.838 191.625 381.473C192.355 382.081 193.084 382.69 193.836 383.316C195.126 384.365 196.421 385.408 197.727 386.438C200.036 388.26 202.031 389.998 203.875 392.28C207.189 396.28 211.267 400.481 216.125 402.618C218.513 403.916 218.875 405.152 220 407.545C221.638 409.452 221.638 409.452 223.5 411.209C224.413 412.108 224.413 412.108 225.344 413.025C226.895 414.593 226.895 414.593 229 414.384C229 415.028 229 415.673 229 416.338C229.66 416.338 230.32 416.338 231 416.338C231 416.982 231 417.627 231 418.291C231.99 418.614 232.98 418.936 234 419.268C234.516 419.833 235.031 420.397 235.562 420.978C241.732 426.542 250.022 428.952 258 430.992C258.235 428.929 258.235 428.929 256.531 427.591C255.861 427.041 255.191 426.491 254.5 425.924C253.413 425.017 253.413 425.017 252.305 424.092C250.791 422.849 249.275 421.607 247.758 420.367C247.054 419.783 246.35 419.199 245.625 418.597C244.978 418.069 244.331 417.541 243.664 416.998C241.804 415.168 240.851 413.899 240 411.453C240.138 408.406 240.572 405.462 241.004 402.443C241.254 399.777 241.254 399.777 239.883 398.073C237.468 396.439 234.977 395.261 232.312 394.051C219.468 387.945 219.468 387.945 217 383.122C216.34 383.122 215.68 383.122 215 383.122C215 382.477 215 381.832 215 381.168C214.34 381.168 213.68 381.168 213 381.168C212.711 380.583 212.423 379.999 212.125 379.397C210.953 377.071 210.953 377.071 209 374.329C208.34 374.329 207.68 374.329 207 374.329C207 373.684 207 373.04 207 372.375C206.34 372.375 205.68 372.375 205 372.375C205 371.73 205 371.086 205 370.421C204.34 370.421 203.68 370.421 203 370.421C201.925 367.83 200.905 365.26 200 362.606C200.953 363.218 201.905 363.83 202.887 364.461C204.153 365.267 205.42 366.074 206.688 366.88C207.313 367.283 207.939 367.686 208.584 368.101C211.975 370.252 215.175 372.014 219 373.352C221.023 374.162 223.043 374.977 225.062 375.795C226.085 376.208 227.107 376.621 228.16 377.046C231 378.237 231 378.237 233.137 379.328C235.976 380.643 238.904 380.819 242 381.168C242.99 376.977 243.98 372.786 245 368.468C243.02 367.742 241.04 367.017 239 366.269C234.471 364.572 230.137 362.759 225.844 360.564C221.724 358.578 217.352 357.185 213 355.767C212.286 354.489 211.631 353.179 211 351.86C209.155 349.242 207.278 346.654 205.365 344.084C202.63 340.318 200.735 336.62 199 332.321C199.871 332.758 200.743 333.195 201.641 333.645C209.305 337.458 217.021 340.896 225 344.044C226.451 344.638 227.902 345.233 229.352 345.83C230.88 346.456 232.409 347.082 233.938 347.708C234.66 348.007 235.382 348.306 236.126 348.614C239.735 350.081 243.105 351.294 247 351.86C247.591 347.176 247.849 342.845 247 338.182C244.195 335.122 240.828 333.892 237 332.321C235.053 331.279 233.115 330.221 231.188 329.146C228.603 327.758 226.151 326.513 223.383 325.517C213.447 321.3 206.871 306.407 203 297.151C203.557 297.433 204.114 297.715 204.688 298.006C207.085 299.145 209.516 300.115 212 301.059C212 301.703 212 302.348 212 303.013C221.03 312.101 235.789 314.904 248 317.667C248.66 317.667 249.32 317.667 250 317.667C252.704 306.298 252.704 306.298 251 295.197C249.356 294.492 247.689 293.836 246 293.243C246 292.598 246 291.954 246 291.289C256.89 290.645 267.78 290 279 289.335C281.723 283.351 281.723 283.351 284.5 277.246C285.361 275.36 285.361 275.36 286.24 273.436C286.687 272.449 287.134 271.462 287.594 270.445C288.055 269.432 288.515 268.419 288.99 267.376C290.124 265.052 290.124 265.052 290 262.958C290.66 262.958 291.32 262.958 292 262.958C292.495 261.991 292.495 261.991 293 261.004C293.99 260.682 294.98 260.359 296 260.027C296.495 262.929 296.495 262.929 297 265.889C298.607 265.639 300.21 265.371 301.812 265.095C302.706 264.948 303.599 264.8 304.52 264.649C309.142 263.319 310.735 260.084 313 256.119C317.41 248.202 317.41 248.202 319 239.512C317.531 237.284 315.887 235.584 314 233.65C323.83 232.493 333.62 231.484 343.515 231.053C346.807 230.9 349.83 230.621 353 229.742C358.784 229.219 361.383 230.293 366 233.65C366.66 233.65 367.32 233.65 368 233.65C368 234.295 368 234.939 368 235.604C369.715 237.155 369.715 237.155 371.875 238.657C372.954 239.446 372.954 239.446 374.055 240.252C375.896 241.641 375.896 241.641 378 241.465C378 242.11 378 242.755 378 243.419C379.944 245.194 379.944 245.194 382.375 246.961C383.593 247.886 383.593 247.886 384.836 248.831C386.841 250.44 386.841 250.44 389 250.258C389 250.903 389 251.547 389 252.212C390.883 253.848 390.883 253.848 393.25 255.509C396.429 257.812 399.224 260.205 402 262.958C403.918 264.303 403.918 264.303 406 264.912C407.32 264.59 408.64 264.267 410 263.935C411.98 255.23 411.98 255.23 414 246.35C409.082 242.346 405.677 240.202 400.074 237.764C398 236.581 398 236.581 397 233.65C401.95 232.683 401.95 232.683 407 231.696C404.946 227.683 402.636 225.087 399.559 221.831C398 219.973 398 219.973 397 217.042C394.984 215.19 394.984 215.19 392.562 213.439C391.759 212.831 390.956 212.223 390.129 211.596C386.517 209.233 385.5 210.45 382.562 213.073Z" fill="#00141B"/>
<path d="M-2 137.91C26.7346 138.167 55.2478 139.657 83.8849 141.946C91.7765 142.569 99.67 143.105 107.571 143.594C112.576 143.904 117.579 144.238 122.581 144.577C126.039 144.81 129.496 145.032 132.956 145.225C148.235 146.102 161.052 147.094 174 155.495C174.97 156.102 175.94 156.708 176.939 157.333C178.413 158.277 179.871 159.246 181.301 160.254C183.116 161.536 183.116 161.536 186 162.333C186 162.978 186 163.623 186 164.287C187.176 164.59 187.176 164.59 188.375 164.898C192.186 166.31 195.336 168.069 198.789 170.16C201.395 171.737 204.014 173.279 206.648 174.808C208.307 175.779 209.966 176.749 211.625 177.72C212.853 178.429 212.853 178.429 214.106 179.153C214.868 179.602 215.629 180.051 216.414 180.514C217.45 181.118 217.45 181.118 218.506 181.734C218.999 182.102 219.492 182.47 220 182.849C220 183.494 220 184.139 220 184.803C220.715 184.905 221.431 185.007 222.168 185.112C225.312 185.853 227.552 187.016 230.312 188.65C231.196 189.162 232.079 189.675 232.988 190.203C233.652 190.678 234.316 191.152 235 191.642C235 192.286 235 192.931 235 193.595C235.523 193.682 236.047 193.769 236.586 193.859C239.874 194.831 242.682 196.484 245.625 198.175C246.239 198.524 246.853 198.873 247.485 199.232C248.73 199.942 249.974 200.654 251.217 201.368C252.851 202.303 254.496 203.222 256.141 204.14C257.043 204.65 257.945 205.16 258.875 205.685C259.677 206.136 260.479 206.587 261.305 207.051C261.864 207.447 262.424 207.842 263 208.25C263 208.894 263 209.539 263 210.203C264.176 210.566 264.176 210.566 265.375 210.936C268.392 212.339 268.716 213.18 270 216.065C248.021 226.765 224.105 229.653 200 232.673C194.447 233.375 188.895 234.083 183.343 234.792C181.659 235.007 179.976 235.222 178.293 235.436C163.417 237.326 163.417 237.326 148.615 239.695C138.204 241.458 129.16 239.681 119 237.375C116.151 236.742 113.3 236.116 110.449 235.489C109.738 235.332 109.027 235.175 108.294 235.013C100.464 233.293 92.5909 231.787 84.7051 230.327C83.757 230.148 82.8089 229.969 81.832 229.784C81.0145 229.633 80.197 229.482 79.3547 229.327C76.6887 228.691 74.4278 228.082 72 226.811C70.9167 224.72 70.9167 224.72 70.2617 222.102C70.0032 221.126 69.7446 220.149 69.4783 219.144C69.2173 218.087 68.9564 217.031 68.6875 215.943C68.093 213.727 67.4939 211.513 66.8906 209.299C66.5832 208.16 66.2757 207.021 65.959 205.847C64.4249 200.314 62.7232 194.843 60.9375 189.382C60.4815 187.898 60.4815 187.898 60.0164 186.384C58.0697 180.52 56.5988 177.928 51 175.034C51 174.389 51 173.744 51 173.08C50.1544 172.838 49.3087 172.596 48.4375 172.347C44.6157 170.989 41.4813 169.259 38 167.218C38 166.573 38 165.929 38 165.264C37.4818 165.024 36.9636 164.783 36.4297 164.535C27.7007 160.134 19.3687 154.809 11.0625 149.694C10.4536 149.326 9.84466 148.957 9.21729 148.578C7.77542 147.68 6.38174 146.709 5 145.725C5 145.081 5 144.436 5 143.772C4.03062 143.53 3.06125 143.288 2.0625 143.039C1.05187 142.636 0.04125 142.233 -1 141.818C-1.69141 139.787 -1.69141 139.787 -2 137.91ZM45 154.518C51.9959 159.074 63.3458 166.241 72 166.241C72.1186 167.085 72.2372 167.929 72.3594 168.798C73.0022 172.114 73.9795 174.952 75.25 178.087C75.9229 179.755 75.9229 179.755 76.6094 181.456C77.881 184.517 79.1829 187.562 80.5 190.604C82.3702 194.935 84.0507 199.304 85.6562 203.735C85.8834 204.361 86.1106 204.986 86.3447 205.631C86.8979 207.155 87.4491 208.679 88 210.203C92.9292 210.902 97.8588 211.597 102.789 212.29C104.466 212.527 106.143 212.763 107.82 213.001C110.23 213.343 112.64 213.681 115.051 214.02C116.176 214.18 116.176 214.18 117.324 214.343C120.246 214.751 123.044 215.088 126 215.088C126 214.443 126 213.799 126 213.134C125.34 213.134 124.68 213.134 124 213.134C124 212.489 124 211.845 124 211.18C123.34 211.18 122.68 211.18 122 211.18C121.752 210.636 121.505 210.092 121.25 209.532C118.899 205.283 115.88 202.232 112.125 199.152C108.53 196.177 105.868 193.002 103.227 189.203C102.822 188.718 102.417 188.233 102 187.734C101.34 187.734 100.68 187.734 100 187.734C100 187.089 100 186.444 100 185.78C99.34 185.78 98.68 185.78 98 185.78C97.67 184.168 97.34 182.556 97 180.895C97.6407 181.155 98.2813 181.414 98.9414 181.681C102.77 183.209 106.52 184.669 110.5 185.78C118.008 187.875 125.057 191.107 132.137 194.286C138.876 197.259 145.709 200.021 152.656 202.495C154.691 203.25 156.705 204.039 158.719 204.846C159.391 205.113 160.062 205.381 160.755 205.657C162.108 206.197 163.46 206.742 164.81 207.291C167.706 208.445 169.84 209.226 173 209.226C168.96 205.069 165.092 201.372 160 198.48C159.34 198.48 158.68 198.48 158 198.48C158 197.835 158 197.191 158 196.526C156.549 195.302 155.092 194.082 153.598 192.909C150.449 190.411 148.295 188.598 147 184.803C157.814 187.558 168.553 190.412 179.125 193.962C187.677 196.828 196.305 199.356 205 201.777C206.212 202.115 207.424 202.453 208.672 202.801C213.431 204.115 218.137 205.405 223 206.296C220.256 203.442 217.549 201.358 214.125 199.335C210.763 197.306 207.492 195.22 204.309 192.935C203.686 192.489 203.064 192.043 202.423 191.583C201.2 190.699 199.983 189.807 198.772 188.907C195.462 186.519 194.256 185.78 190 185.78C190 185.135 190 184.49 190 183.826C187.696 182.27 185.397 180.837 183 179.43C181.534 178.555 180.067 177.68 178.602 176.804C177.843 176.353 177.084 175.903 176.302 175.438C174.047 174.085 171.814 172.704 169.586 171.309C168.88 170.869 168.173 170.429 167.445 169.975C166.096 169.134 164.75 168.288 163.406 167.438C162.785 167.053 162.164 166.668 161.523 166.272C160.986 165.935 160.449 165.598 159.896 165.251C154.881 162.702 150.035 162.004 144.445 161.605C143.72 161.55 142.995 161.496 142.248 161.44C139.874 161.263 137.5 161.096 135.125 160.929C131.751 160.681 128.377 160.428 125.004 160.173C124.154 160.11 123.305 160.047 122.43 159.981C114.628 159.392 106.848 158.639 99.0625 157.876C81.0791 156.146 63.0476 155.322 45 154.518Z" fill="#E2E8F0"/>
<path d="M100 7C104.571 7.60737 108.325 9.41476 112.375 11.4573C113.071 11.8034 113.767 12.1494 114.484 12.506C116.661 13.5929 118.831 14.6906 121 15.7925C121.686 16.1403 122.372 16.4882 123.079 16.8467C135.136 22.9833 135.136 22.9833 140.438 26.3556C142.888 27.9135 145.17 28.9783 147.938 29.897C151.964 31.2592 155.122 33.3658 158.609 35.7243C165.931 40.5043 173.99 44.1249 181.872 47.9253C187.074 50.4559 192.118 53.1972 197.136 56.0569C200.33 57.87 203.539 59.55 206.875 61.098C213.598 64.2895 219.822 68.3517 226.099 72.2992C227.971 73.4511 227.971 73.4511 229.909 74.3604C234.758 76.7244 236.765 79.5419 238.875 84.2393C239.361 85.2529 239.361 85.2529 239.856 86.2871C240.552 87.7421 241.24 89.201 241.919 90.6633C243.038 93.0517 244.197 95.4181 245.367 97.7828C248.851 104.837 252.251 111.87 255.121 119.188C256.422 122.317 258.004 125.29 259.574 128.297C266.989 142.725 266.989 142.725 269.625 149.938C270.998 153.535 272.64 156.825 274.422 160.238C280.178 171.443 285.518 182.84 290.59 194.355C291.4 196.164 292.247 197.96 293.191 199.705C294 201.411 294 201.411 294 204.342C291.551 206.124 291.551 206.124 288.312 207.944C287.257 208.552 286.201 209.161 285.113 209.787C281.996 211.182 280.358 211.685 277 211.18C274.576 209.835 273.025 208.228 271 206.296C271 205.651 271 205.006 271 204.342C270.444 204.11 269.889 203.878 269.316 203.64C266.456 202.094 264.331 200.164 261.938 197.992C259.341 195.642 256.949 193.562 254 191.642C254 190.997 254 190.352 254 189.688C253.34 189.688 252.68 189.688 252 189.688C252 189.043 252 188.398 252 187.734C251.34 187.734 250.68 187.734 250 187.734C250 187.089 250 186.444 250 185.78C248.35 185.135 246.7 184.49 245 183.826C245 183.181 245 182.536 245 181.872C244.416 181.624 243.832 181.376 243.23 181.12C240.76 179.789 239.238 178.323 237.312 176.316C233.709 172.676 229.877 169.649 225.688 166.676C225.131 166.21 224.574 165.744 224 165.264C224 164.619 224 163.975 224 163.31C223.469 163.111 222.938 162.912 222.391 162.707C219.676 161.174 217.685 159.227 215.483 157.065C205.828 147.639 195.278 142.722 182.617 137.998C179.371 136.677 176.255 135.135 173.125 133.575C165.176 129.614 157.097 125.938 149 122.279C148.358 121.989 147.715 121.698 147.054 121.399C143.371 119.735 139.686 118.075 136 116.417C136 115.772 136 115.128 136 114.463C135.316 114.364 134.631 114.264 133.926 114.162C130.417 113.352 127.442 112.004 124.188 110.494C123.026 109.959 121.865 109.424 120.668 108.873C119.788 108.461 118.907 108.049 118 107.625C117.96 106.716 117.921 105.807 117.88 104.87C116.882 80.1006 116.882 80.1006 112 55.847C111.8 55.1502 111.599 54.4535 111.393 53.7357C110.374 50.2369 109.313 46.7521 108.227 43.2727C106.22 36.7841 104.617 30.1973 103 23.608C102.548 21.7945 102.548 21.7945 102.086 19.9444C100 11.4122 100 11.4122 100 7ZM121 32.4004C122.315 37.35 124.09 41.8377 126.375 46.4439C127.002 47.7362 127.628 49.0286 128.254 50.3211C129.258 52.3786 130.266 54.4339 131.277 56.4881C135.636 65.6141 136.491 74.9439 137.535 84.8575C137.662 85.9218 137.662 85.9218 137.792 87.0076C137.986 88.9209 138.041 90.8463 138.086 92.7684C139.091 96.214 139.322 96.473 142.316 98.1416C143.719 98.7848 145.136 99.4011 146.562 99.9924C147.96 100.617 149.357 101.242 150.754 101.866C151.456 102.168 152.158 102.47 152.882 102.782C154.993 103.714 157.051 104.716 159.113 105.747C162.542 107.441 166.018 108.829 169.625 110.128C172.965 111.333 176.067 112.544 179.211 114.185C181.993 115.814 181.993 115.814 185 114.463C181.108 106.722 181.108 106.722 176.961 99.1109C172.774 91.7063 169.373 84.5538 167 76.3627C167.66 76.3627 168.32 76.3627 169 76.3627C169.217 76.8715 169.433 77.3802 169.656 77.9044C171.544 81.2278 173.986 83.977 176.5 86.8648C176.999 87.4529 177.498 88.041 178.012 88.6469C179.294 90.1282 180.643 91.5545 182 92.9706C182.66 92.9706 183.32 92.9706 184 92.9706C184.289 93.7162 184.577 94.4617 184.875 95.2298C185.963 98.0022 185.963 98.0022 188 100.786C188.66 100.786 189.32 100.786 190 100.786C190.253 101.345 190.505 101.904 190.766 102.481C192.153 104.968 193.778 106.77 195.75 108.846C198.908 112.243 201.776 115.722 204.555 119.417C206.07 121.393 207.634 123.311 209.25 125.21C209.73 125.774 210.209 126.338 210.703 126.919C211.94 128.366 211.94 128.366 214 128.14C214.402 129.017 214.402 129.017 214.812 129.911C215.991 132.032 217.231 133.326 219 134.979C217.662 125.137 215.943 115.414 214 105.671C217.328 108.761 219.948 111.722 222.312 115.562C225.347 120.366 228.631 124.9 232.105 129.407C233.881 131.882 235.412 134.421 236.922 137.056C238.854 140.337 240.988 143.485 243.125 146.641C243.567 147.309 244.009 147.977 244.465 148.666C245.589 150.327 246.789 151.939 248 153.541C248.66 153.541 249.32 153.541 250 153.541C250.196 154.31 250.392 155.08 250.594 155.873C252.534 160.742 255.45 164.719 258.5 168.989C259.094 169.839 259.689 170.69 260.301 171.567C263.048 175.892 263.048 175.892 267 178.941C265.656 174.771 264.038 170.873 262.129 166.92C261.851 166.341 261.572 165.762 261.286 165.166C260.69 163.927 260.092 162.688 259.494 161.45C257.908 158.172 256.334 154.889 254.758 151.606C254.44 150.945 254.122 150.284 253.795 149.603C250.806 143.381 247.863 137.138 244.938 130.888C244.51 129.975 244.082 129.061 243.641 128.12C242.425 125.522 241.212 122.924 240 120.325C239.36 118.957 239.36 118.957 238.708 117.562C235.935 111.625 233.233 105.662 230.596 99.6661C230.032 98.3961 229.459 97.1298 228.877 95.8676C228.276 94.5514 227.701 93.2233 227.15 91.8864C224.764 86.5239 222.049 84.3043 216.75 81.7358C216.051 81.374 215.352 81.0122 214.633 80.6394C212.435 79.5114 210.222 78.4201 208 77.3396C207.285 76.9916 206.571 76.6435 205.834 76.2849C203.066 74.9411 200.297 73.5991 197.52 72.2744C193.138 70.1624 189.192 67.7506 185.199 64.9943C181.669 62.8566 177.831 61.5179 173.98 60.0257C169.367 58.0942 165.231 55.5348 161 52.9161C155.438 49.5496 150.048 46.5568 144 44.1237C143.092 43.5797 142.185 43.0356 141.25 42.4751C139.002 40.9467 139.002 40.9467 136 41.1929C136 40.5481 136 39.9033 136 39.239C134.064 38.28 132.126 37.324 130.188 36.3692C129.109 35.8365 128.03 35.3038 126.918 34.755C124.038 33.3202 124.038 33.3202 121 32.4004Z" fill="#E2E8F0"/>
<path d="M457.5 202.449C458.658 202.939 459.816 203.429 461.01 203.934C468.393 207.073 475.71 210.334 482.98 213.714C485.569 214.892 488.154 215.968 490.812 216.981C495.653 218.828 500.424 220.816 505.188 222.843C505.948 223.159 506.709 223.476 507.493 223.802C512.483 225.943 516.823 228.247 521 231.696C521.904 234.589 521.373 236.438 521 239.512C508.877 242.742 492.058 232.188 481.714 226.54C478.818 224.901 475.944 223.229 473.081 221.536C468.647 218.922 464.163 216.555 459.5 214.355C454.635 212.058 450.27 209.55 445.965 206.361C443.471 205.038 441.802 205.068 439 205.319C436.262 206.225 436.262 206.225 434 207.273C434 207.917 434 208.562 434 209.226C433.34 209.226 432.68 209.226 432 209.226C432 209.871 432 210.516 432 211.18C430.207 212.653 430.207 212.653 427.812 214.233C427.035 214.76 426.258 215.286 425.457 215.828C422.729 217.176 421.014 217.283 418 217.042C417.188 215.393 417.188 215.393 417 213.134C420.336 209.501 424.064 206.579 428.062 203.67C429.085 202.921 430.107 202.172 431.16 201.4C440.813 194.797 447.37 198.066 457.5 202.449Z" fill="#00141B"/>
<path d="M430 221.682C440.964 221.902 447.624 227.15 456 233.65C458.054 235.13 460.117 236.598 462.184 238.061C464 239.512 464 239.512 466.387 241.851C468.935 244.333 471.571 246.53 474.375 248.731C475.335 249.5 476.296 250.268 477.285 251.059C478.851 252.287 480.433 253.496 482.059 254.646C487.652 258.76 490.538 264.449 493 270.774C493 272.063 493 273.353 493 274.681C482.459 273.919 473.594 270.242 466 262.958C463.873 260.351 461.917 257.679 459.988 254.929C457.48 251.501 454.638 248.486 451.664 245.442C449.853 243.241 448.938 241.192 448 238.535C447.34 238.535 446.68 238.535 446 238.535C445.588 237.829 445.175 237.124 444.75 236.398C440.761 230.135 436.282 228.211 429.172 226.59C427 225.834 427 225.834 425 222.904C426.523 221.416 427.879 221.726 430 221.682Z" fill="#00141B"/>
<path d="M396 297.151C397.647 297.262 399.292 297.386 400.938 297.517C402.312 297.619 402.312 297.619 403.715 297.723C404.846 297.924 404.846 297.924 406 298.128C406.33 298.773 406.66 299.417 407 300.082C400.658 301.208 394.433 301.152 388 301.059C388 300.736 388 300.414 388 300.082C392.455 299.598 392.455 299.598 397 299.105C396.67 298.46 396.34 297.815 396 297.151Z" fill="black"/>
<path d="M364 335.252C364.33 335.252 364.66 335.252 365 335.252C365.33 338.153 365.66 341.055 366 344.044C365.01 344.366 364.02 344.689 363 345.021C362.34 343.731 361.68 342.442 361 341.113C361.66 341.113 362.32 341.113 363 341.113C363.33 339.179 363.66 337.245 364 335.252Z" fill="black"/>
</g>
</g>
<defs>
<clipPath id="clip0_42_4">
<rect width="837" height="607" fill="white"/>
</clipPath>
<clipPath id="clip1_42_4">
<rect width="523" height="466" fill="white" transform="translate(-2 7)"/>
</clipPath>
</defs>
</svg>
