<svg width="837" height="607" viewBox="0 0 837 607" fill="none" xmlns="http://www.w3.org/2000/svg">
<ellipse cx="381.5" cy="370" rx="242.5" ry="237" fill="#FFE243"/>
<path d="M378.81 478.822H423.634V486H362.77V377.089H378.81V478.822ZM461.134 415.614C466.114 415.614 470.313 416.542 473.731 418.397C477.198 420.204 480.006 422.67 482.154 425.795C484.352 428.92 485.914 432.533 486.842 436.635C487.818 440.688 488.307 444.984 488.307 449.525V452.968H443.189C443.189 455.702 443.629 458.656 444.508 461.83C445.387 465.004 446.803 467.934 448.756 470.619C450.758 473.305 453.321 475.551 456.446 477.357C459.62 479.115 463.502 479.994 468.092 479.994H483.326V486H467.872C461.036 486 455.128 485.219 450.147 483.656C445.216 482.094 441.139 479.823 437.916 476.845C434.742 473.866 432.398 470.229 430.885 465.932C429.371 461.635 428.614 456.728 428.614 451.21C428.614 446.62 429.322 442.177 430.738 437.88C432.203 433.583 434.303 429.799 437.037 426.527C439.82 423.207 443.214 420.57 447.218 418.617C451.271 416.615 455.909 415.614 461.134 415.614ZM460.401 422.279C457.374 422.279 454.786 422.963 452.638 424.33C450.489 425.697 448.707 427.528 447.291 429.823C445.924 432.069 444.898 434.706 444.215 437.733C443.58 440.712 443.238 443.812 443.189 447.035H474.171V443.886C474.073 441.054 473.805 438.344 473.365 435.756C472.975 433.168 472.267 430.873 471.241 428.871C470.216 426.869 468.824 425.282 467.066 424.11C465.357 422.89 463.136 422.279 460.401 422.279ZM526.759 421.986C524.415 421.986 522.364 422.06 520.606 422.206C518.897 422.353 517.335 422.548 515.919 422.792C514.503 423.036 513.185 423.329 511.964 423.671C510.743 423.964 509.522 424.281 508.302 424.623L506.544 419.862C510.646 418.349 514.918 417.274 519.361 416.64C523.854 415.956 528.102 415.614 532.105 415.614C537.232 415.614 541.432 415.883 544.703 416.42C548.023 416.957 550.611 417.86 552.467 419.13C554.322 420.351 555.592 422.011 556.275 424.11C557.008 426.161 557.374 428.749 557.374 431.874V486H533.351C526.808 486 521.217 485.316 516.578 483.949C511.988 482.582 508.229 480.751 505.299 478.456C502.369 476.112 500.221 473.451 498.854 470.473C497.486 467.445 496.803 464.271 496.803 460.951C496.803 456.85 497.438 453.236 498.707 450.111C500.025 446.986 501.905 444.374 504.347 442.274C506.788 440.126 509.767 438.515 513.282 437.44C516.798 436.317 520.802 435.756 525.294 435.756C527.735 435.756 530.494 436.171 533.57 437.001C536.695 437.831 539.674 439.076 542.506 440.736V431.581C542.506 430.458 542.384 429.335 542.14 428.212C541.896 427.04 541.261 426.015 540.235 425.136C539.21 424.208 537.623 423.451 535.475 422.865C533.375 422.279 530.47 421.986 526.759 421.986ZM542.506 479.994V446.083C540.162 444.667 537.721 443.617 535.182 442.934C532.643 442.25 529.835 441.908 526.759 441.908C524.317 441.908 522.145 442.348 520.24 443.227C518.385 444.105 516.822 445.351 515.553 446.962C514.283 448.573 513.307 450.502 512.623 452.748C511.988 454.994 511.671 457.484 511.671 460.219C511.671 461 511.695 462.025 511.744 463.295C511.842 464.564 512.086 465.932 512.477 467.396C512.916 468.861 513.551 470.351 514.381 471.864C515.26 473.329 516.48 474.672 518.043 475.893C519.605 477.113 521.583 478.114 523.976 478.896C526.368 479.628 529.298 479.994 532.765 479.994H542.506ZM591.505 422.426C593.458 421.059 595.167 419.936 596.632 419.057C598.146 418.178 599.488 417.494 600.66 417.006C601.832 416.469 602.906 416.103 603.883 415.907C604.908 415.712 605.909 415.614 606.886 415.614C610.694 415.614 613.526 416.933 615.382 419.569C617.237 422.206 618.336 425.941 618.678 430.775L605.86 434.584C605.372 431.068 604.713 428.578 603.883 427.113C603.053 425.648 601.759 424.916 600.001 424.916C598.976 424.916 597.755 425.136 596.339 425.575C594.972 426.015 593.36 426.747 591.505 427.772V486H576.637V417.006H591.505V422.426Z" fill="black"/>
<path d="M641.683 422.719C644.808 421.352 647.688 420.229 650.325 419.35C652.962 418.422 655.428 417.689 657.723 417.152C660.018 416.566 662.142 416.176 664.095 415.98C666.097 415.736 668.025 415.614 669.881 415.614C674.471 415.614 677.962 416.811 680.354 419.203C682.796 421.596 684.017 425.453 684.017 430.775V486H669.148V433.046C669.148 431.972 669.026 430.873 668.782 429.75C668.587 428.627 668.196 427.626 667.61 426.747C667.024 425.868 666.219 425.16 665.193 424.623C664.217 424.037 662.972 423.744 661.458 423.744C658.968 423.744 656.087 424.062 652.815 424.696C649.544 425.282 645.833 426.527 641.683 428.432V486H626.814V417.006H641.683V422.719ZM731.478 415.614C736.458 415.614 740.657 416.542 744.075 418.397C747.542 420.204 750.35 422.67 752.498 425.795C754.695 428.92 756.258 432.533 757.186 436.635C758.162 440.688 758.65 444.984 758.65 449.525V452.968H713.533C713.533 455.702 713.973 458.656 714.852 461.83C715.73 465.004 717.146 467.934 719.1 470.619C721.102 473.305 723.665 475.551 726.79 477.357C729.964 479.115 733.846 479.994 738.436 479.994H753.67V486H738.216C731.38 486 725.472 485.219 720.491 483.656C715.56 482.094 711.482 479.823 708.26 476.845C705.086 473.866 702.742 470.229 701.229 465.932C699.715 461.635 698.958 456.728 698.958 451.21C698.958 446.62 699.666 442.177 701.082 437.88C702.547 433.583 704.646 429.799 707.381 426.527C710.164 423.207 713.558 420.57 717.562 418.617C721.614 416.615 726.253 415.614 731.478 415.614ZM730.745 422.279C727.718 422.279 725.13 422.963 722.981 424.33C720.833 425.697 719.051 427.528 717.635 429.823C716.268 432.069 715.242 434.706 714.559 437.733C713.924 440.712 713.582 443.812 713.533 447.035H744.515V443.886C744.417 441.054 744.148 438.344 743.709 435.756C743.318 433.168 742.61 430.873 741.585 428.871C740.56 426.869 739.168 425.282 737.41 424.11C735.701 422.89 733.479 422.279 730.745 422.279ZM801.351 415.614C806.331 415.614 810.53 416.542 813.948 418.397C817.415 420.204 820.223 422.67 822.371 425.795C824.568 428.92 826.131 432.533 827.059 436.635C828.035 440.688 828.523 444.984 828.523 449.525V452.968H783.406C783.406 455.702 783.846 458.656 784.725 461.83C785.604 465.004 787.02 467.934 788.973 470.619C790.975 473.305 793.538 475.551 796.663 477.357C799.837 479.115 803.719 479.994 808.309 479.994H823.543V486H808.089C801.253 486 795.345 485.219 790.364 483.656C785.433 482.094 781.355 479.823 778.133 476.845C774.959 473.866 772.615 470.229 771.102 465.932C769.588 461.635 768.831 456.728 768.831 451.21C768.831 446.62 769.539 442.177 770.955 437.88C772.42 433.583 774.52 429.799 777.254 426.527C780.037 423.207 783.431 420.57 787.435 418.617C791.487 416.615 796.126 415.614 801.351 415.614ZM800.618 422.279C797.591 422.279 795.003 422.963 792.854 424.33C790.706 425.697 788.924 427.528 787.508 429.823C786.141 432.069 785.115 434.706 784.432 437.733C783.797 440.712 783.455 443.812 783.406 447.035H814.388V443.886C814.29 441.054 814.021 438.344 813.582 435.756C813.191 433.168 812.483 430.873 811.458 428.871C810.433 426.869 809.041 425.282 807.283 424.11C805.574 422.89 803.353 422.279 800.618 422.279Z" fill="white"/>
<g clip-path="url(#clip0_42_4)">
<path d="M401.965 203.71C404.499 204.784 406.408 206.181 408.562 207.869C409.327 208.461 410.091 209.053 410.879 209.663C414.436 212.594 414.436 212.594 416 214.342C416 214.987 416 215.631 416 216.296C416.66 216.296 417.32 216.296 418 216.296C418 216.94 418 217.585 418 218.249C418.66 218.249 419.32 218.249 420 218.249C420 218.894 420 219.539 420 220.203C420.66 220.203 421.32 220.203 422 220.203C422 220.848 422 221.493 422 222.157C422.66 222.157 423.32 222.157 424 222.157C424 222.802 424 223.447 424 224.111C424.701 224.292 425.402 224.474 426.125 224.661C430.041 226.574 432.534 229.393 435 232.904C435 233.548 435 234.193 435 234.857C435.66 234.857 436.32 234.857 437 234.857C439.982 239.65 440.315 243.393 439.875 248.84C439.822 249.655 439.768 250.47 439.713 251.31C438.52 268.318 436.769 285.309 435 302.266C434.01 302.589 433.02 302.911 432 303.243C430.273 302.228 430.273 302.228 428.375 300.679C425.686 298.601 423.096 296.804 420.062 295.244C415.42 292.815 411.035 290.051 406.625 287.246C405.885 286.775 405.144 286.304 404.381 285.82C402.253 284.465 400.126 283.108 398 281.751C391.801 277.798 385.7 274.092 379 271.004C379 270.359 379 269.715 379 269.05C375.776 270.681 375.776 270.681 375.312 273.569C375.158 274.717 375.158 274.717 375 275.889C374.216 275.728 373.433 275.567 372.625 275.4C370.118 274.851 370.118 274.851 368 274.912C368.505 275.665 369.011 276.418 369.531 277.194C370.181 278.174 370.831 279.154 371.5 280.163C372.15 281.138 372.799 282.112 373.469 283.117C375 285.658 375 285.658 375 287.612C375.66 287.612 376.32 287.612 377 287.612C378.402 289.467 378.402 289.467 379.938 291.886C381.866 294.922 382.897 296.338 386 298.358C386 299.003 386 299.648 386 300.312C386.804 300.494 386.804 300.494 387.625 300.679C390 301.289 390 301.289 392.66 302.217C396.34 303.348 400.019 304.021 403.812 304.648C409.767 305.677 415.321 307.024 421 309.105C421 309.427 421 309.75 421 310.082C420.016 310.148 420.016 310.148 419.012 310.215C416.049 310.421 413.087 310.648 410.125 310.876C409.092 310.944 408.06 311.013 406.996 311.084C406.01 311.162 405.024 311.241 404.008 311.322C403.097 311.389 402.185 311.455 401.247 311.524C398.628 311.856 398.628 311.856 397 314.966C388.249 313.489 381.822 309.312 375.375 303.548C374.575 302.834 374.575 302.834 373.76 302.105C372.46 300.901 371.224 299.634 370 298.358C370 297.714 370 297.069 370 296.405C369.34 296.405 368.68 296.405 368 296.405C368 295.76 368 295.115 368 294.451C367.34 294.451 366.68 294.451 366 294.451C364.627 293.188 363.29 291.887 362 290.543C359.576 294.688 358.478 297.491 359 302.266C360.562 304.635 360.562 304.635 362.75 306.662C371 315.137 371 315.137 371 318.874C371.66 318.874 372.32 318.874 373 318.874C376.022 330.551 378.736 342.049 380 354.044C379.01 354.366 378.02 354.689 377 355.021C373.56 350.345 371.231 345.537 368.938 340.245C366.071 333.624 366.071 333.624 362 327.667C362 327.022 362 326.377 362 325.713C361.34 325.713 360.68 325.713 360 325.713C360 325.068 360 324.423 360 323.759C359.27 323.498 358.541 323.238 357.789 322.969C355.036 321.82 352.822 320.485 350.375 318.813C346.102 315.9 343.068 314.925 337.875 314.722C331.915 314.238 327.917 312.307 323 309.105C322.376 308.712 321.752 308.319 321.109 307.914C319.725 307.03 318.36 306.117 317 305.197C317.33 305.519 317.66 305.842 318 306.174C319.349 307.892 320.679 309.625 322 311.364C322.722 312.307 323.444 313.25 324.188 314.222C327.147 318.628 327.158 322.394 327.316 327.621C327.337 328.266 327.358 328.911 327.379 329.575C327.445 331.626 327.504 333.676 327.562 335.726C327.606 337.121 327.649 338.515 327.693 339.909C327.8 343.318 327.902 346.727 328 350.136C328.99 350.459 329.98 350.781 331 351.113C332.473 352.575 332.473 352.575 334.062 354.471C338.417 359.502 343.191 364.085 348 368.698C347.67 369.665 347.34 370.632 347 371.629C346.381 371.226 345.762 370.823 345.125 370.408C342.536 368.992 340.197 367.996 337.438 366.988C329.03 363.767 319.852 359.832 315 352.09C313.119 345.782 312.391 339.598 311.789 333.074C311.162 326.763 311.162 326.763 309 320.828C306.423 319.085 306.423 319.085 303.375 318.019C302.372 317.619 301.369 317.218 300.336 316.806C299.565 316.521 298.794 316.237 298 315.943C297.56 319.037 297.123 322.13 296.688 325.224C296.57 326.053 296.452 326.882 296.33 327.735C295.635 332.678 294.973 337.624 294.353 342.577C292.568 356.812 290.539 370.999 288.375 385.184C287.905 388.271 287.435 391.357 286.968 394.444C286.682 396.337 286.394 398.229 286.104 400.121C285.338 405.185 284.714 410.237 284.257 415.338C283.994 417.599 283.532 419.775 283.062 422.002C282.934 424.225 282.934 424.225 284 426.338C287.79 429.435 291.882 431.749 296.183 434.102C298.716 435.535 301.069 437.177 303.438 438.855C305.972 440.649 308.465 442.224 311.199 443.724C316.646 446.718 321.684 450.323 326.797 453.823C331.375 456.924 335.989 459.698 340.888 462.285C344.774 464.449 348.284 467.11 351.848 469.739C355.739 472.54 359.491 474.446 364 476.161C364 476.806 364 477.451 364 478.115C364.804 478.377 365.609 478.639 366.438 478.909C367.283 479.292 368.129 479.675 369 480.069C369.33 481.036 369.66 482.004 370 483C365.108 483.299 362.021 482.681 357.409 480.916C352.585 479.22 347.584 478.087 342.625 476.833C334.091 474.637 325.694 472.266 317.353 469.454C308.149 466.37 298.755 463.95 289.344 461.553C281.52 459.558 273.751 457.408 266 455.157C264.53 454.74 264.53 454.74 263.031 454.314C257.532 452.697 252.856 450.835 248 447.83C248 447.185 248 446.541 248 445.876C247.265 445.637 246.53 445.397 245.773 445.15C242.685 443.783 240.99 442.281 238.637 439.912C237.832 439.111 237.027 438.311 236.197 437.486C235.369 436.648 234.541 435.81 233.688 434.947C228.523 429.766 223.362 424.709 217.741 420.001C215.372 417.989 213.19 415.833 211 413.637C208.275 410.947 205.543 408.262 202.812 405.578C202.089 404.862 201.365 404.147 200.619 403.41C199.926 402.73 199.233 402.05 198.52 401.349C197.892 400.731 197.264 400.112 196.616 399.475C195.056 397.919 195.056 397.919 193 397.029C193 396.385 193 395.74 193 395.075C192.072 394.713 192.072 394.713 191.125 394.343C188.56 392.869 188.132 391.863 187 389.214C186.529 387.173 186.529 387.173 186.219 384.947C186.1 384.096 185.981 383.245 185.859 382.369C185.74 381.444 185.622 380.519 185.5 379.567C185.373 378.597 185.247 377.627 185.116 376.627C183.505 363.621 182.606 350.522 182 337.436C181.952 336.463 181.904 335.489 181.854 334.486C181.685 328.438 182.578 323.604 184.75 317.958C185.025 317.198 185.3 316.438 185.584 315.655C186.13 314.146 186.683 312.64 187.244 311.136C190.358 302.773 192.941 294.313 195.25 285.71C196.173 282.347 197.007 279.787 199 276.866C201.503 276.499 203.779 276.324 206.295 276.264C207.422 276.221 207.422 276.221 208.572 276.176C211.061 276.083 213.55 276.011 216.039 275.939C217.763 275.878 219.486 275.817 221.21 275.754C225.75 275.592 230.291 275.447 234.832 275.306C239.464 275.159 244.095 274.996 248.727 274.834C257.817 274.518 266.908 274.221 276 273.935C275.383 271.475 274.763 269.017 274.141 266.558C273.969 265.872 273.797 265.185 273.62 264.477C272.23 259.001 270.563 253.663 268.734 248.309C268.012 245.647 267.857 243.458 268 240.719C293.8 227.128 293.8 227.128 306.547 222.543C311.41 220.624 316.047 218.324 320.708 215.981C330.668 210.975 338.714 211.841 349.188 215.013C350.093 215.275 350.998 215.536 351.931 215.805C356.174 217.044 360.379 218.356 364.555 219.795C365.238 220.029 365.921 220.263 366.624 220.504C368.445 221.139 370.256 221.8 372.066 222.463C374.859 223.34 374.859 223.34 377.047 222.596C379.776 220.618 382.232 218.399 384.688 216.112C388.386 212.749 392.093 209.415 396 206.282C396.681 205.733 397.361 205.184 398.062 204.618C400 203.595 400 203.595 401.965 203.71ZM396.562 223.073C394.244 225.142 393.045 226.05 390 227.042C390 227.687 390 228.331 390 228.996C389.34 228.996 388.68 228.996 388 228.996C388 229.641 388 230.285 388 230.95C386.855 231.373 386.855 231.373 385.688 231.805C382.85 232.867 382.85 232.867 380 234.857C373.779 235.313 368.529 234.24 362.562 232.598C361.768 232.39 360.973 232.181 360.154 231.967C356.156 230.902 352.209 229.738 348.281 228.446C336.953 224.638 336.953 224.638 325.549 227.207C322.807 228.625 320.111 230.117 317.415 231.618C311.779 234.619 305.885 237.147 300.069 239.794C290.277 243.535 290.277 243.535 283.19 250.311C282.941 253.108 283.625 254.999 284.582 257.644C284.937 258.649 285.292 259.655 285.658 260.691C286.039 261.737 286.42 262.783 286.812 263.86C287.553 265.918 288.288 267.978 289.02 270.039C289.351 270.95 289.682 271.861 290.023 272.8C291.261 276.715 292.142 280.674 293 284.681C291.75 284.752 291.75 284.752 290.475 284.823C282.562 285.268 274.649 285.713 266.736 286.159C262.669 286.389 258.603 286.618 254.536 286.846C250.6 287.067 246.665 287.289 242.729 287.511C241.239 287.595 239.749 287.679 238.259 287.762C237.548 287.802 236.838 287.842 236.106 287.883C235.409 287.922 234.712 287.961 233.993 288.001C231.968 288.117 229.943 288.241 227.918 288.365C225.265 288.517 222.624 288.641 219.969 288.728C218.712 288.782 217.454 288.837 216.159 288.893C214.485 288.948 214.485 288.948 212.777 289.004C209.896 289.32 209.896 289.32 208.176 291.429C206.955 293.552 206.037 295.592 205.211 297.889C204.909 298.727 204.608 299.565 204.297 300.429C203.841 301.731 203.841 301.731 203.375 303.06C203.063 303.917 202.751 304.774 202.43 305.657C200.742 310.408 199.643 314.843 199 319.851C198.484 320.98 197.969 322.108 197.438 323.27C192.611 335.45 196.779 352.593 198 365.218C198.193 367.269 198.386 369.32 198.578 371.371C199.045 376.343 199.52 381.313 200 386.283C200.66 386.283 201.32 386.283 202 386.283C202 386.928 202 387.573 202 388.237C203.581 389.838 203.581 389.838 205.625 391.473C206.355 392.081 207.084 392.69 207.836 393.316C209.126 394.365 210.421 395.408 211.727 396.438C214.036 398.26 216.031 399.998 217.875 402.28C221.189 406.28 225.267 410.481 230.125 412.618C232.513 413.916 232.875 415.152 234 417.545C235.638 419.452 235.638 419.452 237.5 421.209C238.413 422.108 238.413 422.108 239.344 423.025C240.895 424.593 240.895 424.593 243 424.384C243 425.028 243 425.673 243 426.338C243.66 426.338 244.32 426.338 245 426.338C245 426.982 245 427.627 245 428.291C245.99 428.614 246.98 428.936 248 429.268C248.516 429.833 249.031 430.397 249.562 430.978C255.732 436.542 264.022 438.952 272 440.992C272.235 438.929 272.235 438.929 270.531 437.591C269.861 437.041 269.191 436.491 268.5 435.924C267.413 435.017 267.413 435.017 266.305 434.092C264.791 432.849 263.275 431.607 261.758 430.367C261.054 429.783 260.35 429.199 259.625 428.597C258.978 428.069 258.331 427.541 257.664 426.998C255.804 425.168 254.851 423.899 254 421.453C254.138 418.406 254.572 415.462 255.004 412.443C255.254 409.777 255.254 409.777 253.883 408.073C251.468 406.439 248.977 405.261 246.312 404.051C233.468 397.945 233.468 397.945 231 393.122C230.34 393.122 229.68 393.122 229 393.122C229 392.477 229 391.832 229 391.168C228.34 391.168 227.68 391.168 227 391.168C226.711 390.583 226.423 389.999 226.125 389.397C224.953 387.071 224.953 387.071 223 384.329C222.34 384.329 221.68 384.329 221 384.329C221 383.684 221 383.04 221 382.375C220.34 382.375 219.68 382.375 219 382.375C219 381.73 219 381.086 219 380.421C218.34 380.421 217.68 380.421 217 380.421C215.925 377.83 214.905 375.26 214 372.606C214.953 373.218 215.905 373.83 216.887 374.461C218.153 375.267 219.42 376.074 220.688 376.88C221.313 377.283 221.939 377.686 222.584 378.101C225.975 380.252 229.175 382.014 233 383.352C235.023 384.162 237.043 384.977 239.062 385.795C240.085 386.208 241.107 386.621 242.16 387.046C245 388.237 245 388.237 247.137 389.328C249.976 390.643 252.904 390.819 256 391.168C256.99 386.977 257.98 382.786 259 378.468C257.02 377.742 255.04 377.017 253 376.269C248.471 374.572 244.137 372.759 239.844 370.564C235.724 368.578 231.352 367.185 227 365.767C226.286 364.489 225.631 363.179 225 361.86C223.155 359.242 221.278 356.654 219.365 354.084C216.63 350.318 214.735 346.62 213 342.321C213.871 342.758 214.743 343.195 215.641 343.645C223.305 347.458 231.021 350.896 239 354.044C240.451 354.638 241.902 355.233 243.352 355.83C244.88 356.456 246.409 357.082 247.938 357.708C248.66 358.007 249.382 358.306 250.126 358.614C253.735 360.081 257.105 361.294 261 361.86C261.591 357.176 261.849 352.845 261 348.182C258.195 345.122 254.828 343.892 251 342.321C249.053 341.279 247.115 340.221 245.188 339.146C242.603 337.758 240.151 336.513 237.383 335.517C227.447 331.3 220.871 316.407 217 307.151C217.557 307.433 218.114 307.715 218.688 308.006C221.085 309.145 223.516 310.115 226 311.059C226 311.703 226 312.348 226 313.013C235.03 322.101 249.789 324.904 262 327.667C262.66 327.667 263.32 327.667 264 327.667C266.704 316.298 266.704 316.298 265 305.197C263.356 304.492 261.689 303.836 260 303.243C260 302.598 260 301.954 260 301.289C270.89 300.645 281.78 300 293 299.335C295.723 293.351 295.723 293.351 298.5 287.246C299.361 285.36 299.361 285.36 300.24 283.436C300.687 282.449 301.134 281.462 301.594 280.445C302.055 279.432 302.515 278.419 302.99 277.376C304.124 275.052 304.124 275.052 304 272.958C304.66 272.958 305.32 272.958 306 272.958C306.495 271.991 306.495 271.991 307 271.004C307.99 270.682 308.98 270.359 310 270.027C310.495 272.929 310.495 272.929 311 275.889C312.607 275.639 314.21 275.371 315.812 275.095C316.706 274.948 317.599 274.8 318.52 274.649C323.142 273.319 324.735 270.084 327 266.119C331.41 258.202 331.41 258.202 333 249.512C331.531 247.284 329.887 245.584 328 243.65C337.83 242.493 347.62 241.484 357.515 241.053C360.807 240.9 363.83 240.621 367 239.742C372.784 239.219 375.383 240.293 380 243.65C380.66 243.65 381.32 243.65 382 243.65C382 244.295 382 244.939 382 245.604C383.715 247.155 383.715 247.155 385.875 248.657C386.954 249.446 386.954 249.446 388.055 250.252C389.896 251.641 389.896 251.641 392 251.465C392 252.11 392 252.755 392 253.419C393.944 255.194 393.944 255.194 396.375 256.961C397.593 257.886 397.593 257.886 398.836 258.831C400.841 260.44 400.841 260.44 403 260.258C403 260.903 403 261.547 403 262.212C404.883 263.848 404.883 263.848 407.25 265.509C410.429 267.812 413.224 270.205 416 272.958C417.918 274.303 417.918 274.303 420 274.912C421.32 274.59 422.64 274.267 424 273.935C425.98 265.23 425.98 265.23 428 256.35C423.082 252.346 419.677 250.202 414.074 247.764C412 246.581 412 246.581 411 243.65C415.95 242.683 415.95 242.683 421 241.696C418.946 237.683 416.636 235.087 413.559 231.831C412 229.973 412 229.973 411 227.042C408.984 225.19 408.984 225.19 406.562 223.439C405.759 222.831 404.956 222.223 404.129 221.596C400.517 219.233 399.5 220.45 396.562 223.073Z" fill="black"/>
<path d="M12 147.91C40.7346 148.167 69.2478 149.657 97.8849 151.946C105.776 152.569 113.67 153.105 121.571 153.594C126.576 153.904 131.579 154.238 136.581 154.577C140.039 154.81 143.496 155.032 146.956 155.225C162.235 156.102 175.052 157.094 188 165.495C188.97 166.102 189.94 166.708 190.939 167.333C192.413 168.277 193.871 169.246 195.301 170.254C197.116 171.536 197.116 171.536 200 172.333C200 172.978 200 173.623 200 174.287C201.176 174.59 201.176 174.59 202.375 174.898C206.186 176.31 209.336 178.069 212.789 180.16C215.395 181.737 218.014 183.279 220.648 184.808C222.307 185.779 223.966 186.749 225.625 187.72C226.853 188.429 226.853 188.429 228.106 189.153C228.868 189.602 229.629 190.051 230.414 190.514C231.45 191.118 231.45 191.118 232.506 191.734C232.999 192.102 233.492 192.47 234 192.849C234 193.494 234 194.139 234 194.803C234.715 194.905 235.431 195.007 236.168 195.112C239.312 195.853 241.552 197.016 244.312 198.65C245.196 199.162 246.079 199.675 246.988 200.203C247.652 200.678 248.316 201.152 249 201.642C249 202.286 249 202.931 249 203.595C249.523 203.682 250.047 203.769 250.586 203.859C253.874 204.831 256.682 206.484 259.625 208.175C260.239 208.524 260.853 208.873 261.485 209.232C262.73 209.942 263.974 210.654 265.217 211.368C266.851 212.303 268.496 213.222 270.141 214.14C271.043 214.65 271.945 215.16 272.875 215.685C273.677 216.136 274.479 216.587 275.305 217.051C275.864 217.447 276.424 217.842 277 218.25C277 218.894 277 219.539 277 220.203C278.176 220.566 278.176 220.566 279.375 220.936C282.392 222.339 282.716 223.18 284 226.065C262.021 236.765 238.105 239.653 214 242.673C208.447 243.375 202.895 244.083 197.343 244.792C195.659 245.007 193.976 245.222 192.293 245.436C177.417 247.326 177.417 247.326 162.615 249.695C152.204 251.458 143.16 249.681 133 247.375C130.151 246.742 127.3 246.116 124.449 245.489C123.738 245.332 123.027 245.175 122.294 245.013C114.464 243.293 106.591 241.787 98.7051 240.327C97.757 240.148 96.8089 239.969 95.832 239.784C95.0145 239.633 94.197 239.482 93.3547 239.327C90.6887 238.691 88.4278 238.082 86 236.811C84.9167 234.72 84.9167 234.72 84.2617 232.102C84.0032 231.126 83.7446 230.149 83.4783 229.144C83.2173 228.087 82.9564 227.031 82.6875 225.943C82.093 223.727 81.4939 221.513 80.8906 219.299C80.5832 218.16 80.2757 217.021 79.959 215.847C78.4249 210.314 76.7232 204.843 74.9375 199.382C74.4815 197.898 74.4815 197.898 74.0164 196.384C72.0697 190.52 70.5988 187.928 65 185.034C65 184.389 65 183.744 65 183.08C64.1544 182.838 63.3087 182.596 62.4375 182.347C58.6157 180.989 55.4813 179.259 52 177.218C52 176.573 52 175.929 52 175.264C51.4818 175.024 50.9636 174.783 50.4297 174.535C41.7007 170.134 33.3687 164.809 25.0625 159.694C24.4536 159.326 23.8447 158.957 23.2173 158.578C21.7754 157.68 20.3817 156.709 19 155.725C19 155.081 19 154.436 19 153.772C18.0306 153.53 17.0612 153.288 16.0625 153.039C15.0519 152.636 14.0412 152.233 13 151.818C12.3086 149.787 12.3086 149.787 12 147.91ZM59 164.518C65.9959 169.074 77.3458 176.241 86 176.241C86.1186 177.085 86.2372 177.929 86.3594 178.798C87.0022 182.114 87.9795 184.952 89.25 188.087C89.9229 189.755 89.9229 189.755 90.6094 191.456C91.881 194.517 93.1829 197.562 94.5 200.604C96.3702 204.935 98.0507 209.304 99.6562 213.735C99.8834 214.361 100.111 214.986 100.345 215.631C100.898 217.155 101.449 218.679 102 220.203C106.929 220.902 111.859 221.597 116.789 222.29C118.466 222.527 120.143 222.763 121.82 223.001C124.23 223.343 126.64 223.681 129.051 224.02C130.176 224.18 130.176 224.18 131.324 224.343C134.246 224.751 137.044 225.088 140 225.088C140 224.443 140 223.799 140 223.134C139.34 223.134 138.68 223.134 138 223.134C138 222.489 138 221.845 138 221.18C137.34 221.18 136.68 221.18 136 221.18C135.752 220.636 135.505 220.092 135.25 219.532C132.899 215.283 129.88 212.232 126.125 209.152C122.53 206.177 119.868 203.002 117.227 199.203C116.822 198.718 116.417 198.233 116 197.734C115.34 197.734 114.68 197.734 114 197.734C114 197.089 114 196.444 114 195.78C113.34 195.78 112.68 195.78 112 195.78C111.67 194.168 111.34 192.556 111 190.895C111.641 191.155 112.281 191.414 112.941 191.681C116.77 193.209 120.52 194.669 124.5 195.78C132.008 197.875 139.057 201.107 146.137 204.286C152.876 207.259 159.709 210.021 166.656 212.495C168.691 213.25 170.705 214.039 172.719 214.846C173.391 215.113 174.062 215.381 174.755 215.657C176.108 216.197 177.46 216.742 178.81 217.291C181.706 218.445 183.84 219.226 187 219.226C182.96 215.069 179.092 211.372 174 208.48C173.34 208.48 172.68 208.48 172 208.48C172 207.835 172 207.191 172 206.526C170.549 205.302 169.092 204.082 167.598 202.909C164.449 200.411 162.295 198.598 161 194.803C171.814 197.558 182.553 200.412 193.125 203.962C201.677 206.828 210.305 209.356 219 211.777C220.212 212.115 221.424 212.453 222.672 212.801C227.431 214.115 232.137 215.405 237 216.296C234.256 213.442 231.549 211.358 228.125 209.335C224.763 207.306 221.492 205.22 218.309 202.935C217.686 202.489 217.064 202.043 216.423 201.583C215.2 200.699 213.983 199.807 212.772 198.907C209.462 196.519 208.256 195.78 204 195.78C204 195.135 204 194.49 204 193.826C201.696 192.27 199.397 190.837 197 189.43C195.534 188.555 194.067 187.68 192.602 186.804C191.843 186.353 191.084 185.903 190.302 185.438C188.047 184.085 185.814 182.704 183.586 181.309C182.88 180.869 182.173 180.429 181.445 179.975C180.096 179.134 178.75 178.288 177.406 177.438C176.785 177.053 176.164 176.668 175.523 176.272C174.986 175.935 174.449 175.598 173.896 175.251C168.881 172.702 164.035 172.004 158.445 171.605C157.72 171.55 156.995 171.496 156.248 171.44C153.874 171.263 151.5 171.096 149.125 170.929C145.751 170.681 142.377 170.428 139.004 170.173C138.154 170.11 137.305 170.047 136.43 169.981C128.628 169.392 120.848 168.639 113.062 167.876C95.0791 166.146 77.0476 165.322 59 164.518Z" fill="black"/>
<path d="M114 17C118.571 17.6074 122.325 19.4148 126.375 21.4573C127.071 21.8034 127.767 22.1494 128.484 22.506C130.661 23.5929 132.831 24.6906 135 25.7925C135.686 26.1403 136.372 26.4882 137.079 26.8467C149.136 32.9833 149.136 32.9833 154.438 36.3556C156.888 37.9135 159.17 38.9783 161.938 39.897C165.964 41.2592 169.122 43.3658 172.609 45.7243C179.931 50.5043 187.99 54.1249 195.872 57.9253C201.074 60.4559 206.118 63.1972 211.136 66.0568C214.33 67.87 217.539 69.55 220.875 71.098C227.598 74.2895 233.822 78.3517 240.099 82.2992C241.971 83.4511 241.971 83.4511 243.909 84.3604C248.758 86.7244 250.765 89.5419 252.875 94.2393C253.361 95.2529 253.361 95.2529 253.856 96.2871C254.552 97.7421 255.24 99.201 255.919 100.663C257.038 103.052 258.197 105.418 259.367 107.783C262.851 114.837 266.251 121.87 269.121 129.188C270.422 132.317 272.004 135.29 273.574 138.297C280.989 152.725 280.989 152.725 283.625 159.938C284.998 163.535 286.64 166.825 288.422 170.238C294.178 181.443 299.518 192.84 304.59 204.355C305.4 206.164 306.247 207.96 307.191 209.705C308 211.411 308 211.411 308 214.342C305.551 216.124 305.551 216.124 302.312 217.944C301.257 218.552 300.201 219.161 299.113 219.787C295.996 221.182 294.358 221.685 291 221.18C288.576 219.835 287.025 218.228 285 216.296C285 215.651 285 215.006 285 214.342C284.444 214.11 283.889 213.878 283.316 213.64C280.456 212.094 278.331 210.164 275.938 207.992C273.341 205.642 270.949 203.562 268 201.642C268 200.997 268 200.352 268 199.688C267.34 199.688 266.68 199.688 266 199.688C266 199.043 266 198.398 266 197.734C265.34 197.734 264.68 197.734 264 197.734C264 197.089 264 196.444 264 195.78C262.35 195.135 260.7 194.49 259 193.826C259 193.181 259 192.536 259 191.872C258.416 191.624 257.832 191.376 257.23 191.12C254.76 189.789 253.238 188.323 251.312 186.316C247.709 182.676 243.877 179.649 239.688 176.676C239.131 176.21 238.574 175.744 238 175.264C238 174.619 238 173.975 238 173.31C237.469 173.111 236.938 172.912 236.391 172.707C233.676 171.173 231.685 169.227 229.483 167.065C219.828 157.639 209.278 152.722 196.617 147.998C193.371 146.677 190.255 145.135 187.125 143.575C179.176 139.614 171.097 135.938 163 132.279C162.358 131.989 161.715 131.698 161.054 131.399C157.371 129.735 153.686 128.075 150 126.417C150 125.772 150 125.128 150 124.463C149.316 124.364 148.631 124.264 147.926 124.162C144.417 123.352 141.442 122.004 138.188 120.494C137.026 119.959 135.865 119.424 134.668 118.873C133.788 118.461 132.907 118.049 132 117.625C131.96 116.716 131.921 115.807 131.88 114.87C130.882 90.1006 130.882 90.1006 126 65.847C125.8 65.1502 125.599 64.4535 125.393 63.7357C124.374 60.2369 123.313 56.7521 122.227 53.2727C120.22 46.7841 118.617 40.1973 117 33.608C116.548 31.7945 116.548 31.7945 116.086 29.9444C114 21.4122 114 21.4122 114 17ZM135 42.4004C136.315 47.35 138.09 51.8377 140.375 56.4439C141.002 57.7362 141.628 59.0286 142.254 60.3211C143.258 62.3786 144.266 64.4339 145.277 66.4881C149.636 75.6141 150.491 84.9439 151.535 94.8575C151.662 95.9218 151.662 95.9218 151.792 97.0076C151.986 98.9209 152.041 100.846 152.086 102.768C153.091 106.214 153.322 106.473 156.316 108.142C157.719 108.785 159.136 109.401 160.562 109.992C161.96 110.617 163.357 111.242 164.754 111.866C165.456 112.168 166.158 112.47 166.882 112.782C168.993 113.714 171.051 114.716 173.113 115.747C176.542 117.441 180.018 118.829 183.625 120.128C186.965 121.333 190.067 122.544 193.211 124.185C195.993 125.814 195.993 125.814 199 124.463C195.108 116.722 195.108 116.722 190.961 109.111C186.774 101.706 183.373 94.5538 181 86.3627C181.66 86.3627 182.32 86.3627 183 86.3627C183.217 86.8715 183.433 87.3802 183.656 87.9044C185.544 91.2278 187.986 93.977 190.5 96.8648C190.999 97.4529 191.498 98.041 192.012 98.6469C193.294 100.128 194.643 101.555 196 102.971C196.66 102.971 197.32 102.971 198 102.971C198.289 103.716 198.577 104.462 198.875 105.23C199.963 108.002 199.963 108.002 202 110.786C202.66 110.786 203.32 110.786 204 110.786C204.253 111.345 204.505 111.904 204.766 112.481C206.153 114.968 207.778 116.77 209.75 118.846C212.908 122.243 215.776 125.722 218.555 129.417C220.07 131.393 221.634 133.311 223.25 135.21C223.73 135.774 224.209 136.338 224.703 136.919C225.94 138.366 225.94 138.366 228 138.14C228.402 139.017 228.402 139.017 228.812 139.911C229.991 142.032 231.231 143.326 233 144.979C231.662 135.137 229.943 125.414 228 115.671C231.328 118.761 233.948 121.722 236.312 125.562C239.347 130.366 242.631 134.9 246.105 139.407C247.881 141.882 249.412 144.421 250.922 147.056C252.854 150.337 254.988 153.485 257.125 156.641C257.567 157.309 258.009 157.977 258.465 158.666C259.589 160.327 260.789 161.939 262 163.541C262.66 163.541 263.32 163.541 264 163.541C264.196 164.31 264.392 165.08 264.594 165.873C266.534 170.742 269.45 174.719 272.5 178.989C273.094 179.839 273.689 180.69 274.301 181.567C277.048 185.892 277.048 185.892 281 188.941C279.656 184.771 278.038 180.873 276.129 176.92C275.851 176.341 275.572 175.762 275.286 175.166C274.69 173.927 274.092 172.688 273.494 171.45C271.908 168.172 270.334 164.889 268.758 161.606C268.44 160.945 268.122 160.284 267.795 159.603C264.806 153.381 261.863 147.138 258.938 140.888C258.51 139.975 258.082 139.061 257.641 138.12C256.425 135.522 255.212 132.924 254 130.325C253.36 128.957 253.36 128.957 252.708 127.562C249.935 121.625 247.233 115.662 244.596 109.666C244.032 108.396 243.459 107.13 242.877 105.868C242.276 104.551 241.701 103.223 241.15 101.886C238.764 96.5239 236.049 94.3043 230.75 91.7358C230.051 91.374 229.352 91.0122 228.633 90.6394C226.435 89.5114 224.222 88.4201 222 87.3396C221.285 86.9916 220.571 86.6435 219.834 86.2849C217.066 84.9411 214.297 83.5991 211.52 82.2744C207.138 80.1624 203.192 77.7506 199.199 74.9943C195.669 72.8566 191.831 71.5179 187.98 70.0257C183.367 68.0942 179.231 65.5348 175 62.9161C169.438 59.5496 164.048 56.5568 158 54.1237C157.092 53.5797 156.185 53.0356 155.25 52.4751C153.002 50.9467 153.002 50.9467 150 51.1929C150 50.5481 150 49.9033 150 49.239C148.064 48.28 146.126 47.324 144.188 46.3692C143.109 45.8365 142.03 45.3038 140.918 44.755C138.038 43.3202 138.038 43.3202 135 42.4004Z" fill="black"/>
<path d="M471.5 212.449C472.658 212.939 473.816 213.429 475.01 213.934C482.393 217.073 489.71 220.334 496.98 223.714C499.569 224.892 502.154 225.968 504.812 226.981C509.653 228.828 514.424 230.816 519.188 232.843C519.948 233.159 520.709 233.476 521.493 233.802C526.483 235.943 530.823 238.247 535 241.696C535.904 244.589 535.373 246.438 535 249.512C522.877 252.742 506.058 242.188 495.714 236.54C492.818 234.901 489.944 233.229 487.081 231.536C482.647 228.922 478.163 226.555 473.5 224.355C468.635 222.058 464.27 219.55 459.965 216.361C457.471 215.038 455.802 215.068 453 215.319C450.262 216.225 450.262 216.225 448 217.273C448 217.917 448 218.562 448 219.226C447.34 219.226 446.68 219.226 446 219.226C446 219.871 446 220.516 446 221.18C444.207 222.653 444.207 222.653 441.812 224.233C441.035 224.76 440.258 225.286 439.457 225.828C436.729 227.176 435.014 227.283 432 227.042C431.188 225.393 431.188 225.393 431 223.134C434.336 219.501 438.064 216.579 442.062 213.67C443.085 212.921 444.107 212.172 445.16 211.4C454.813 204.797 461.37 208.066 471.5 212.449Z" fill="black"/>
<path d="M444 231.682C454.964 231.902 461.624 237.15 470 243.65C472.054 245.13 474.117 246.598 476.184 248.061C478 249.512 478 249.512 480.387 251.851C482.935 254.333 485.571 256.53 488.375 258.731C489.335 259.5 490.296 260.268 491.285 261.059C492.851 262.287 494.433 263.496 496.059 264.646C501.652 268.76 504.538 274.449 507 280.774C507 282.063 507 283.353 507 284.681C496.459 283.919 487.594 280.242 480 272.958C477.873 270.351 475.917 267.679 473.988 264.929C471.48 261.501 468.638 258.486 465.664 255.442C463.853 253.241 462.938 251.192 462 248.535C461.34 248.535 460.68 248.535 460 248.535C459.588 247.829 459.175 247.124 458.75 246.398C454.761 240.135 450.282 238.211 443.172 236.59C441 235.834 441 235.834 439 232.904C440.523 231.416 441.879 231.726 444 231.682Z" fill="black"/>
<path d="M410 307.151C411.647 307.262 413.292 307.386 414.938 307.517C416.312 307.619 416.312 307.619 417.715 307.723C418.846 307.924 418.846 307.924 420 308.128C420.33 308.773 420.66 309.417 421 310.082C414.658 311.208 408.433 311.152 402 311.059C402 310.736 402 310.414 402 310.082C406.455 309.598 406.455 309.598 411 309.105C410.67 308.46 410.34 307.815 410 307.151Z" fill="black"/>
<path d="M378 345.252C378.33 345.252 378.66 345.252 379 345.252C379.33 348.153 379.66 351.055 380 354.044C379.01 354.366 378.02 354.689 377 355.021C376.34 353.731 375.68 352.442 375 351.113C375.66 351.113 376.32 351.113 377 351.113C377.33 349.179 377.66 347.245 378 345.252Z" fill="black"/>
</g>
<defs>
<clipPath id="clip0_42_4">
<rect width="523" height="466" fill="white" transform="translate(12 17)"/>
</clipPath>
</defs>
</svg>
